{
  "asset": {
    "version": "2.0",
    "generator": "THREE.GLTFExporter"
  },
  "scenes": [
    {
      "name": "Scene",
      "nodes": [
        11
      ]
    }
  ],
  "scene": 0,
  "nodes": [
    {
      "name": "imagetostl_mesh0",
      "extras": {
        "name": "imagetostl_mesh0"
      },
      "mesh": 0
    },
    {
      "name": "imagetostl_mesh1",
      "extras": {
        "name": "imagetostl_mesh1"
      },
      "mesh": 1
    },
    {
      "name": "imagetostl_mesh2",
      "extras": {
        "name": "imagetostl_mesh2"
      },
      "mesh": 2
    },
    {
      "name": "imagetostl_mesh3",
      "extras": {
        "name": "imagetostl_mesh3"
      },
      "mesh": 3
    },
    {
      "name": "imagetostl_mesh4",
      "extras": {
        "name": "imagetostl_mesh4"
      },
      "mesh": 4
    },
    {
      "name": "imagetostl_mesh5",
      "extras": {
        "name": "imagetostl_mesh5"
      },
      "mesh": 5
    },
    {
      "name": "imagetostl_mesh6",
      "extras": {
        "name": "imagetostl_mesh6"
      },
      "mesh": 6
    },
    {
      "name": "imagetostl_mesh7",
      "extras": {
        "name": "imagetostl_mesh7"
      },
      "mesh": 7
    },
    {
      "matrix": [
        0.28,
        0,
        0,
        0,
        0,
        6.217248937900877e-17,
        0.28,
        0,
        0,
        -0.28,
        6.217248937900877e-17,
        0,
        1,
        0,
        0,
        1
      ],
      "name": "gdsc_logoglb",
      "extras": {
        "name": "gdsc_logo.glb"
      },
      "children": [
        0,
        1,
        2,
        3,
        4,
        5,
        6,
        7
      ]
    },
    {
      "name": "scenegltf",
      "extras": {
        "name": "scene.gltf"
      },
      "children": [
        8
      ]
    },
    {
      "matrix": [
        1,
        0,
        0,
        0,
        0,
        1,
        0,
        0,
        0,
        0,
        1,
        0,
        -1.0407692102715318,
        0,
        0,
        1
      ],
      "name": "finalgltf",
      "extras": {
        "name": "final.gltf"
      },
      "children": [
        9
      ]
    },
    {
      "name": "gdsc_model.gltf",
      "children": [
        10
      ]
    }
  ],
  "bufferViews": [
    {
      "buffer": 0,
      "byteOffset": 0,
      "byteLength": 34212,
      "target": 34962,
      "byteStride": 12
    },
    {
      "buffer": 0,
      "byteOffset": 34212,
      "byteLength": 34212,
      "target": 34962,
      "byteStride": 12
    },
    {
      "buffer": 0,
      "byteOffset": 68424,
      "byteLength": 8292,
      "target": 34963
    },
    {
      "buffer": 0,
      "byteOffset": 76716,
      "byteLength": 16872,
      "target": 34962,
      "byteStride": 12
    },
    {
      "buffer": 0,
      "byteOffset": 93588,
      "byteLength": 16872,
      "target": 34962,
      "byteStride": 12
    },
    {
      "buffer": 0,
      "byteOffset": 110460,
      "byteLength": 8268,
      "target": 34963
    },
    {
      "buffer": 0,
      "byteOffset": 118728,
      "byteLength": 33792,
      "target": 34962,
      "byteStride": 12
    },
    {
      "buffer": 0,
      "byteOffset": 152520,
      "byteLength": 33792,
      "target": 34962,
      "byteStride": 12
    },
    {
      "buffer": 0,
      "byteOffset": 186312,
      "byteLength": 8328,
      "target": 34963
    },
    {
      "buffer": 0,
      "byteOffset": 194640,
      "byteLength": 16824,
      "target": 34962,
      "byteStride": 12
    },
    {
      "buffer": 0,
      "byteOffset": 211464,
      "byteLength": 16824,
      "target": 34962,
      "byteStride": 12
    },
    {
      "buffer": 0,
      "byteOffset": 228288,
      "byteLength": 8304,
      "target": 34963
    },
    {
      "buffer": 0,
      "byteOffset": 236592,
      "byteLength": 26736,
      "target": 34962,
      "byteStride": 12
    },
    {
      "buffer": 0,
      "byteOffset": 263328,
      "byteLength": 26736,
      "target": 34962,
      "byteStride": 12
    },
    {
      "buffer": 0,
      "byteOffset": 290064,
      "byteLength": 6756,
      "target": 34963
    },
    {
      "buffer": 0,
      "byteOffset": 296820,
      "byteLength": 13836,
      "target": 34962,
      "byteStride": 12
    },
    {
      "buffer": 0,
      "byteOffset": 310656,
      "byteLength": 13836,
      "target": 34962,
      "byteStride": 12
    },
    {
      "buffer": 0,
      "byteOffset": 324492,
      "byteLength": 6732,
      "target": 34963
    },
    {
      "buffer": 0,
      "byteOffset": 331224,
      "byteLength": 27552,
      "target": 34962,
      "byteStride": 12
    },
    {
      "buffer": 0,
      "byteOffset": 358776,
      "byteLength": 27552,
      "target": 34962,
      "byteStride": 12
    },
    {
      "buffer": 0,
      "byteOffset": 386328,
      "byteLength": 6780,
      "target": 34963
    },
    {
      "buffer": 0,
      "byteOffset": 393108,
      "byteLength": 13716,
      "target": 34962,
      "byteStride": 12
    },
    {
      "buffer": 0,
      "byteOffset": 406824,
      "byteLength": 13716,
      "target": 34962,
      "byteStride": 12
    },
    {
      "buffer": 0,
      "byteOffset": 420540,
      "byteLength": 6756,
      "target": 34963
    }
  ],
  "buffers": [
    {
      "byteLength": 427296,
      "uri": "data:application/octet-stream;base64,"
    }
  ],
  "accessors": [
    {
      "bufferView": 0,
      "componentType": 5126,
      "count": 2851,
      "max": [
        49.891693115234375,
        3.5,
        7.708793640136719
      ],
      "min": [
        5.8504638671875,
        -3.5,
        -24.37709617614746
      ],
      "type": "VEC3"
    },
    {
      "bufferView": 1,
      "componentType": 5126,
      "count": 2851,
      "max": [
        0.9999996423721313,
        0,
        0.9999964237213135
      ],
      "min": [
        -0.9999734163284302,
        0,
        -0.999997615814209
      ],
      "type": "VEC3"
    },
    {
      "bufferView": 2,
      "componentType": 5123,
      "count": 4146,
      "max": [
        2850
      ],
      "min": [
        0
      ],
      "type": "SCALAR"
    },
    {
      "bufferView": 3,
      "componentType": 5126,
      "count": 1406,
      "max": [
        49.891693115234375,
        3.5,
        7.708793640136719
      ],
      "min": [
        5.8504638671875,
        -3.5,
        -24.37709617614746
      ],
      "type": "VEC3"
    },
    {
      "bufferView": 4,
      "componentType": 5126,
      "count": 1406,
      "max": [
        0.09330353885889053,
        1,
        0
      ],
      "min": [
        -0.0017999971751123667,
        -1,
        0
      ],
      "type": "VEC3"
    },
    {
      "bufferView": 5,
      "componentType": 5123,
      "count": 4134,
      "max": [
        1405
      ],
      "min": [
        0
      ],
      "type": "SCALAR"
    },
    {
      "bufferView": 6,
      "componentType": 5126,
      "count": 2816,
      "max": [
        -5.859153747558594,
        3.5,
        24.07845687866211
      ],
      "min": [
        -49.88087844848633,
        -3.5,
        -8.001401901245117
      ],
      "type": "VEC3"
    },
    {
      "bufferView": 7,
      "componentType": 5126,
      "count": 2816,
      "max": [
        0.9999768733978271,
        0,
        0.9999825954437256
      ],
      "min": [
        -0.9999966621398926,
        0,
        -0.9999741315841675
      ],
      "type": "VEC3"
    },
    {
      "bufferView": 8,
      "componentType": 5123,
      "count": 4164,
      "max": [
        2815
      ],
      "min": [
        0
      ],
      "type": "SCALAR"
    },
    {
      "bufferView": 9,
      "componentType": 5126,
      "count": 1402,
      "max": [
        -5.859153747558594,
        3.5,
        24.07845687866211
      ],
      "min": [
        -49.88087844848633,
        -3.5,
        -8.001401901245117
      ],
      "type": "VEC3"
    },
    {
      "bufferView": 10,
      "componentType": 5126,
      "count": 1402,
      "max": [
        0,
        1,
        0
      ],
      "min": [
        -0.00009999999747378752,
        -1,
        0
      ],
      "type": "VEC3"
    },
    {
      "bufferView": 11,
      "componentType": 5123,
      "count": 4152,
      "max": [
        1401
      ],
      "min": [
        0
      ],
      "type": "SCALAR"
    },
    {
      "bufferView": 12,
      "componentType": 5126,
      "count": 2228,
      "max": [
        -5.860221862792969,
        3.5,
        -0.1623706817626953
      ],
      "min": [
        -43.97258758544922,
        -3.5,
        -24.39423179626465
      ],
      "type": "VEC3"
    },
    {
      "bufferView": 13,
      "componentType": 5126,
      "count": 2228,
      "max": [
        0.9999948740005493,
        0,
        0.9999680519104004
      ],
      "min": [
        -0.7553821802139282,
        0,
        -0.9999998807907104
      ],
      "type": "VEC3"
    },
    {
      "bufferView": 14,
      "componentType": 5123,
      "count": 3378,
      "max": [
        2227
      ],
      "min": [
        0
      ],
      "type": "SCALAR"
    },
    {
      "bufferView": 15,
      "componentType": 5126,
      "count": 1153,
      "max": [
        -5.860221862792969,
        3.5,
        -0.1623706817626953
      ],
      "min": [
        -43.97258758544922,
        -3.5,
        -24.39423179626465
      ],
      "type": "VEC3"
    },
    {
      "bufferView": 16,
      "componentType": 5126,
      "count": 1153,
      "max": [
        0.0007999998051673174,
        1,
        0
      ],
      "min": [
        -0.0005999999702908099,
        -1,
        0
      ],
      "type": "VEC3"
    },
    {
      "bufferView": 17,
      "componentType": 5123,
      "count": 3366,
      "max": [
        1152
      ],
      "min": [
        0
      ],
      "type": "SCALAR"
    },
    {
      "bufferView": 18,
      "componentType": 5126,
      "count": 2296,
      "max": [
        44.081932067871094,
        3.5,
        23.996015548706055
      ],
      "min": [
        5.826545715332031,
        -3.5,
        -0.1583232879638672
      ],
      "type": "VEC3"
    },
    {
      "bufferView": 19,
      "componentType": 5126,
      "count": 2296,
      "max": [
        0.5987993478775024,
        0,
        1
      ],
      "min": [
        -0.9999727010726929,
        0,
        -0.9999995231628418
      ],
      "type": "VEC3"
    },
    {
      "bufferView": 20,
      "componentType": 5123,
      "count": 3390,
      "max": [
        2295
      ],
      "min": [
        0
      ],
      "type": "SCALAR"
    },
    {
      "bufferView": 21,
      "componentType": 5126,
      "count": 1143,
      "max": [
        44.081932067871094,
        3.5,
        23.996015548706055
      ],
      "min": [
        5.826545715332031,
        -3.5,
        -0.1583232879638672
      ],
      "type": "VEC3"
    },
    {
      "bufferView": 22,
      "componentType": 5126,
      "count": 1143,
      "max": [
        0.00009999999747378752,
        1,
        0
      ],
      "min": [
        -0.00009999999747378752,
        -1,
        0
      ],
      "type": "VEC3"
    },
    {
      "bufferView": 23,
      "componentType": 5123,
      "count": 3378,
      "max": [
        1142
      ],
      "min": [
        0
      ],
      "type": "SCALAR"
    }
  ],
  "materials": [
    {
      "pbrMetallicRoughness": {
        "baseColorFactor": [
          0.004776953478513362,
          0.3371636150376657,
          0.09758734713304495,
          1
        ],
        "metallicFactor": 1,
        "roughnessFactor": 0
      },
      "name": "mat0",
      "extensions": {
        "KHR_materials_emissive_strength": {
          "emissiveStrength": 0
        }
      }
    },
    {
      "pbrMetallicRoughness": {
        "baseColorFactor": [
          0.004776953478513362,
          0.3371636150376657,
          0.09758734713304495,
          1
        ],
        "metallicFactor": 1,
        "roughnessFactor": 0
      },
      "name": "mat1",
      "extensions": {
        "KHR_materials_emissive_strength": {
          "emissiveStrength": 0
        }
      }
    },
    {
      "pbrMetallicRoughness": {
        "baseColorFactor": [
          0.054480276435339814,
          0.23455058215026167,
          0.9046611743890203,
          1
        ],
        "metallicFactor": 1,
        "roughnessFactor": 0
      },
      "name": "mat2",
      "extensions": {
        "KHR_materials_emissive_strength": {
          "emissiveStrength": 0
        }
      }
    },
    {
      "pbrMetallicRoughness": {
        "baseColorFactor": [
          0.054480276435339814,
          0.23455058215026167,
          0.9046611743890203,
          1
        ],
        "metallicFactor": 1,
        "roughnessFactor": 0
      },
      "name": "mat3",
      "extensions": {
        "KHR_materials_emissive_strength": {
          "emissiveStrength": 0
        }
      }
    },
    {
      "pbrMetallicRoughness": {
        "baseColorFactor": [
          0.822785754392438,
          0.05612849004241121,
          0.035601314869097636,
          1
        ],
        "metallicFactor": 1,
        "roughnessFactor": 0
      },
      "name": "mat4",
      "extensions": {
        "KHR_materials_emissive_strength": {
          "emissiveStrength": 0
        }
      }
    },
    {
      "pbrMetallicRoughness": {
        "baseColorFactor": [
          0.822785754392438,
          0.05612849004241121,
          0.035601314869097636,
          1
        ],
        "metallicFactor": 1,
        "roughnessFactor": 0
      },
      "name": "mat5",
      "extensions": {
        "KHR_materials_emissive_strength": {
          "emissiveStrength": 0
        }
      }
    },
    {
      "pbrMetallicRoughness": {
        "baseColorFactor": [
          0.9646862478936612,
          0.5028864580233624,
          0.001214107934117647,
          1
        ],
        "metallicFactor": 1,
        "roughnessFactor": 0
      },
      "name": "mat6",
      "extensions": {
        "KHR_materials_emissive_strength": {
          "emissiveStrength": 0
        }
      }
    },
    {
      "pbrMetallicRoughness": {
        "baseColorFactor": [
          0.9646862478936612,
          0.5028864580233624,
          0.001214107934117647,
          1
        ],
        "metallicFactor": 1,
        "roughnessFactor": 0
      },
      "name": "mat7",
      "extensions": {
        "KHR_materials_emissive_strength": {
          "emissiveStrength": 0.1
        }
      }
    }
  ],
  "meshes": [
    {
      "primitives": [
        {
          "mode": 4,
          "attributes": {
            "POSITION": 0,
            "NORMAL": 1
          },
          "indices": 2,
          "material": 0
        }
      ]
    },
    {
      "primitives": [
        {
          "mode": 4,
          "attributes": {
            "POSITION": 3,
            "NORMAL": 4
          },
          "indices": 5,
          "material": 1
        }
      ]
    },
    {
      "primitives": [
        {
          "mode": 4,
          "attributes": {
            "POSITION": 6,
            "NORMAL": 7
          },
          "indices": 8,
          "material": 2
        }
      ]
    },
    {
      "primitives": [
        {
          "mode": 4,
          "attributes": {
            "POSITION": 9,
            "NORMAL": 10
          },
          "indices": 11,
          "material": 3
        }
      ]
    },
    {
      "primitives": [
        {
          "mode": 4,
          "attributes": {
            "POSITION": 12,
            "NORMAL": 13
          },
          "indices": 14,
          "material": 4
        }
      ]
    },
    {
      "primitives": [
        {
          "mode": 4,
          "attributes": {
            "POSITION": 15,
            "NORMAL": 16
          },
          "indices": 17,
          "material": 5
        }
      ]
    },
    {
      "primitives": [
        {
          "mode": 4,
          "attributes": {
            "POSITION": 18,
            "NORMAL": 19
          },
          "indices": 20,
          "material": 6
        }
      ]
    },
    {
      "primitives": [
        {
          "mode": 4,
          "attributes": {
            "POSITION": 21,
            "NORMAL": 22
          },
          "indices": 23,
          "material": 7
        }
      ]
    }
  ],
  "extensionsUsed": [
    "KHR_materials_emissive_strength"
  ]
}