<svg width="100%" height="100%" viewBox="0 0 773 481" fill="none" xmlns="http://www.w3.org/2000/svg">
<path d="M0 48C0 40.8203 5.8203 35 13 35H760C767.18 35 773 40.8203 773 48V468C773 475.18 767.18 481 760 481H13C5.82028 481 0 475.18 0 468V48Z" fill="#F6F6F6"/>
<path d="M0 13C0 5.8203 5.8203 0 13 0H760C767.18 0 773 5.8203 773 13V35H0V13Z" fill="#363636"/>
<rect x="80" y="69" width="613" height="378" fill="white"/>
<mask id="mask0_530_38" style="mask-type:alpha" maskUnits="userSpaceOnUse" x="80" y="69" width="613" height="378">
<rect x="80" y="69" width="613" height="378" fill="white"/>
</mask>
<g mask="url(#mask0_530_38)">
<g opacity="0.05">
<path d="M106.301 91.4767C104.171 91.4767 102.312 91.0636 100.723 90.2373C99.1662 89.3793 97.9586 88.1876 97.1005 86.6622C96.2425 85.105 95.8135 83.2936 95.8135 81.228V65.9741C95.8135 63.8767 96.2425 62.0653 97.1005 60.5399C97.9586 59.0145 99.1662 57.8387 100.723 57.0124C102.312 56.1544 104.171 55.7254 106.301 55.7254C108.462 55.7254 110.321 56.1544 111.878 57.0124C113.435 57.8387 114.643 59.0145 115.501 60.5399C116.359 62.0653 116.788 63.8767 116.788 65.9741V81.228C116.788 83.2936 116.359 85.105 115.501 86.6622C114.643 88.1876 113.419 89.3793 111.83 90.2373C110.273 91.0636 108.43 91.4767 106.301 91.4767ZM106.301 87.8062C108.207 87.8062 109.733 87.2024 110.877 85.9948C112.053 84.7554 112.64 83.1665 112.64 81.228V65.9741C112.64 64.0356 112.053 62.4625 110.877 61.2549C109.733 60.0155 108.207 59.3958 106.301 59.3958C104.394 59.3958 102.853 60.0155 101.677 61.2549C100.533 62.4625 99.9606 64.0356 99.9606 65.9741V81.228C99.9606 83.1665 100.533 84.7554 101.677 85.9948C102.853 87.2024 104.394 87.8062 106.301 87.8062ZM106.301 76.4135C105.442 76.4135 104.743 76.1433 104.203 75.6031C103.695 75.0629 103.44 74.3478 103.44 73.458C103.44 72.6 103.695 71.9167 104.203 71.4083C104.743 70.868 105.442 70.5979 106.301 70.5979C107.159 70.5979 107.842 70.868 108.35 71.4083C108.891 71.9167 109.161 72.6 109.161 73.458C109.161 74.3478 108.891 75.0629 108.35 75.6031C107.842 76.1433 107.159 76.4135 106.301 76.4135ZM143.463 91V87.0912H152.902V59.7772L143.463 66.8321V62.0653L151.329 56.202H157.192V87.0912H164.914V91H143.463ZM190.875 91V56.202H198.025V84.3264H212.087V91H190.875ZM237.333 91V56.202H258.784V62.3036H244.34V70.1212H257.115V76.2228H244.34V84.8984H258.784V91H237.333ZM281.884 91L290.417 56.202H299.474L308.102 91H300.809L299.14 83.1347H290.846L289.178 91H281.884ZM292.038 77.4145H297.901L296.232 69.0248C296.01 67.8172 295.772 66.6255 295.517 65.4497C295.295 64.2421 295.12 63.3046 294.993 62.6373C294.866 63.3046 294.691 64.2262 294.469 65.402C294.278 66.5779 294.056 67.7696 293.801 68.9772L292.038 77.4145ZM330.964 91V56.202H342.166C344.645 56.202 346.79 56.6311 348.601 57.4891C350.413 58.3471 351.811 59.5706 352.796 61.1596C353.813 62.7485 354.322 64.6235 354.322 66.7844C354.322 69.0407 353.766 71.0587 352.653 72.8383C351.573 74.6179 350.095 75.905 348.22 76.6995L354.798 91H347.028L341.403 77.8435H338.067V91H330.964ZM338.067 71.6466H342.166C343.755 71.6466 344.979 71.2494 345.837 70.4549C346.726 69.6604 347.171 68.5482 347.171 67.1181C347.171 65.6245 346.726 64.4646 345.837 63.6383C344.979 62.8121 343.755 62.3989 342.166 62.3989H338.067V71.6466ZM377.899 91V56.202H386.241L395.25 83.1347C395.155 81.9589 395.044 80.6083 394.917 79.0829C394.789 77.5257 394.678 75.9844 394.583 74.4591C394.519 72.9019 394.488 71.5831 394.488 70.5026V56.202H400.78V91H392.438L383.524 64.0673C383.619 65.0843 383.714 66.2919 383.81 67.6901C383.905 69.0884 383.985 70.5026 384.048 71.9326C384.143 73.3627 384.191 74.6338 384.191 75.7461V91H377.899ZM426.502 91V87.0912H435.94V59.7772L426.502 66.8321V62.0653L434.367 56.202H440.231V87.0912H447.953V91H426.502ZM483.686 91.4767C481.556 91.4767 479.697 91.0636 478.108 90.2373C476.551 89.3793 475.344 88.1876 474.486 86.6622C473.628 85.105 473.199 83.2936 473.199 81.228V65.9741C473.199 63.8767 473.628 62.0653 474.486 60.5399C475.344 59.0145 476.551 57.8387 478.108 57.0124C479.697 56.1544 481.556 55.7254 483.686 55.7254C485.847 55.7254 487.706 56.1544 489.263 57.0124C490.82 57.8387 492.028 59.0145 492.886 60.5399C493.744 62.0653 494.173 63.8767 494.173 65.9741V81.228C494.173 83.2936 493.744 85.105 492.886 86.6622C492.028 88.1876 490.804 89.3793 489.215 90.2373C487.658 91.0636 485.815 91.4767 483.686 91.4767ZM483.686 87.8062C485.592 87.8062 487.118 87.2024 488.262 85.9948C489.438 84.7554 490.026 83.1665 490.026 81.228V65.9741C490.026 64.0356 489.438 62.4625 488.262 61.2549C487.118 60.0155 485.592 59.3958 483.686 59.3958C481.779 59.3958 480.238 60.0155 479.062 61.2549C477.918 62.4625 477.346 64.0356 477.346 65.9741V81.228C477.346 83.1665 477.918 84.7554 479.062 85.9948C480.238 87.2024 481.779 87.8062 483.686 87.8062ZM483.686 76.4135C482.828 76.4135 482.128 76.1433 481.588 75.6031C481.08 75.0629 480.825 74.3478 480.825 73.458C480.825 72.6 481.08 71.9167 481.588 71.4083C482.128 70.868 482.828 70.5979 483.686 70.5979C484.544 70.5979 485.227 70.868 485.735 71.4083C486.276 71.9167 486.546 72.6 486.546 73.458C486.546 74.3478 486.276 75.0629 485.735 75.6031C485.227 76.1433 484.544 76.4135 483.686 76.4135ZM530.859 91.4767C528.73 91.4767 526.87 91.0636 525.282 90.2373C523.724 89.3793 522.517 88.1876 521.659 86.6622C520.801 85.105 520.372 83.2936 520.372 81.228V65.9741C520.372 63.8767 520.801 62.0653 521.659 60.5399C522.517 59.0145 523.724 57.8387 525.282 57.0124C526.87 56.1544 528.73 55.7254 530.859 55.7254C533.02 55.7254 534.879 56.1544 536.436 57.0124C537.993 57.8387 539.201 59.0145 540.059 60.5399C540.917 62.0653 541.346 63.8767 541.346 65.9741V81.228C541.346 83.2936 540.917 85.105 540.059 86.6622C539.201 88.1876 537.977 89.3793 536.388 90.2373C534.831 91.0636 532.988 91.4767 530.859 91.4767ZM530.859 87.8062C532.765 87.8062 534.291 87.2024 535.435 85.9948C536.611 84.7554 537.199 83.1665 537.199 81.228V65.9741C537.199 64.0356 536.611 62.4625 535.435 61.2549C534.291 60.0155 532.765 59.3958 530.859 59.3958C528.952 59.3958 527.411 60.0155 526.235 61.2549C525.091 62.4625 524.519 64.0356 524.519 65.9741V81.228C524.519 83.1665 525.091 84.7554 526.235 85.9948C527.411 87.2024 528.952 87.8062 530.859 87.8062ZM530.859 76.4135C530.001 76.4135 529.302 76.1433 528.761 75.6031C528.253 75.0629 527.999 74.3478 527.999 73.458C527.999 72.6 528.253 71.9167 528.761 71.4083C529.302 70.868 530.001 70.5979 530.859 70.5979C531.717 70.5979 532.4 70.868 532.908 71.4083C533.449 71.9167 533.719 72.6 533.719 73.458C533.719 74.3478 533.449 75.0629 532.908 75.6031C532.4 76.1433 531.717 76.4135 530.859 76.4135ZM568.021 91V87.0912H577.46V59.7772L568.021 66.8321V62.0653L575.887 56.202H581.75V87.0912H589.472V91H568.021ZM625.205 91.4767C623.076 91.4767 621.217 91.0636 619.628 90.2373C618.071 89.3793 616.863 88.1876 616.005 86.6622C615.147 85.105 614.718 83.2936 614.718 81.228V65.9741C614.718 63.8767 615.147 62.0653 616.005 60.5399C616.863 59.0145 618.071 57.8387 619.628 57.0124C621.217 56.1544 623.076 55.7254 625.205 55.7254C627.366 55.7254 629.225 56.1544 630.782 57.0124C632.339 57.8387 633.547 59.0145 634.405 60.5399C635.263 62.0653 635.692 63.8767 635.692 65.9741V81.228C635.692 83.2936 635.263 85.105 634.405 86.6622C633.547 88.1876 632.323 89.3793 630.735 90.2373C629.177 91.0636 627.334 91.4767 625.205 91.4767ZM625.205 87.8062C627.112 87.8062 628.637 87.2024 629.781 85.9948C630.957 84.7554 631.545 83.1665 631.545 81.228V65.9741C631.545 64.0356 630.957 62.4625 629.781 61.2549C628.637 60.0155 627.112 59.3958 625.205 59.3958C623.298 59.3958 621.757 60.0155 620.581 61.2549C619.437 62.4625 618.865 64.0356 618.865 65.9741V81.228C618.865 83.1665 619.437 84.7554 620.581 85.9948C621.757 87.2024 623.298 87.8062 625.205 87.8062ZM625.205 76.4135C624.347 76.4135 623.648 76.1433 623.108 75.6031C622.599 75.0629 622.345 74.3478 622.345 73.458C622.345 72.6 622.599 71.9167 623.108 71.4083C623.648 70.868 624.347 70.5979 625.205 70.5979C626.063 70.5979 626.746 70.868 627.255 71.4083C627.795 71.9167 628.065 72.6 628.065 73.458C628.065 74.3478 627.795 75.0629 627.255 75.6031C626.746 76.1433 626.063 76.4135 625.205 76.4135ZM672.378 91.4767C670.249 91.4767 668.39 91.0636 666.801 90.2373C665.244 89.3793 664.036 88.1876 663.178 86.6622C662.32 85.105 661.891 83.2936 661.891 81.228V65.9741C661.891 63.8767 662.32 62.0653 663.178 60.5399C664.036 59.0145 665.244 57.8387 666.801 57.0124C668.39 56.1544 670.249 55.7254 672.378 55.7254C674.539 55.7254 676.398 56.1544 677.955 57.0124C679.513 57.8387 680.72 59.0145 681.578 60.5399C682.436 62.0653 682.865 63.8767 682.865 65.9741V81.228C682.865 83.2936 682.436 85.105 681.578 86.6622C680.72 88.1876 679.497 89.3793 677.908 90.2373C676.351 91.0636 674.507 91.4767 672.378 91.4767ZM672.378 87.8062C674.285 87.8062 675.81 87.2024 676.954 85.9948C678.13 84.7554 678.718 83.1665 678.718 81.228V65.9741C678.718 64.0356 678.13 62.4625 676.954 61.2549C675.81 60.0155 674.285 59.3958 672.378 59.3958C670.471 59.3958 668.93 60.0155 667.754 61.2549C666.61 62.4625 666.038 64.0356 666.038 65.9741V81.228C666.038 83.1665 666.61 84.7554 667.754 85.9948C668.93 87.2024 670.471 87.8062 672.378 87.8062ZM672.378 76.4135C671.52 76.4135 670.821 76.1433 670.281 75.6031C669.772 75.0629 669.518 74.3478 669.518 73.458C669.518 72.6 669.772 71.9167 670.281 71.4083C670.821 70.868 671.52 70.5979 672.378 70.5979C673.236 70.5979 673.919 70.868 674.428 71.4083C674.968 71.9167 675.238 72.6 675.238 73.458C675.238 74.3478 674.968 75.0629 674.428 75.6031C673.919 76.1433 673.236 76.4135 672.378 76.4135ZM96.2902 154V150.091H105.729V122.777L96.2902 129.832V125.065L104.155 119.202H110.019V150.091H117.741V154H96.2902ZM153.474 154.477C151.344 154.477 149.485 154.064 147.896 153.237C146.339 152.379 145.132 151.188 144.274 149.662C143.416 148.105 142.987 146.294 142.987 144.228V128.974C142.987 126.877 143.416 125.065 144.274 123.54C145.132 122.014 146.339 120.839 147.896 120.012C149.485 119.154 151.344 118.725 153.474 118.725C155.635 118.725 157.494 119.154 159.051 120.012C160.608 120.839 161.816 122.014 162.674 123.54C163.532 125.065 163.961 126.877 163.961 128.974V144.228C163.961 146.294 163.532 148.105 162.674 149.662C161.816 151.188 160.592 152.379 159.003 153.237C157.446 154.064 155.603 154.477 153.474 154.477ZM153.474 150.806C155.38 150.806 156.906 150.202 158.05 148.995C159.226 147.755 159.814 146.166 159.814 144.228V128.974C159.814 127.036 159.226 125.462 158.05 124.255C156.906 123.016 155.38 122.396 153.474 122.396C151.567 122.396 150.026 123.016 148.85 124.255C147.706 125.462 147.134 127.036 147.134 128.974V144.228C147.134 146.166 147.706 147.755 148.85 148.995C150.026 150.202 151.567 150.806 153.474 150.806ZM153.474 139.413C152.616 139.413 151.916 139.143 151.376 138.603C150.868 138.063 150.614 137.348 150.614 136.458C150.614 135.6 150.868 134.917 151.376 134.408C151.916 133.868 152.616 133.598 153.474 133.598C154.332 133.598 155.015 133.868 155.523 134.408C156.064 134.917 156.334 135.6 156.334 136.458C156.334 137.348 156.064 138.063 155.523 138.603C155.015 139.143 154.332 139.413 153.474 139.413ZM190.636 154V150.091H200.075V122.777L190.636 129.832V125.065L198.502 119.202H204.365V150.091H212.087V154H190.636ZM247.82 154.477C245.691 154.477 243.832 154.064 242.243 153.237C240.686 152.379 239.478 151.188 238.62 149.662C237.762 148.105 237.333 146.294 237.333 144.228V128.974C237.333 126.877 237.762 125.065 238.62 123.54C239.478 122.014 240.686 120.839 242.243 120.012C243.832 119.154 245.691 118.725 247.82 118.725C249.981 118.725 251.84 119.154 253.397 120.012C254.954 120.839 256.162 122.014 257.02 123.54C257.878 125.065 258.307 126.877 258.307 128.974V144.228C258.307 146.294 257.878 148.105 257.02 149.662C256.162 151.188 254.938 152.379 253.349 153.237C251.792 154.064 249.949 154.477 247.82 154.477ZM247.82 150.806C249.727 150.806 251.252 150.202 252.396 148.995C253.572 147.755 254.16 146.166 254.16 144.228V128.974C254.16 127.036 253.572 125.462 252.396 124.255C251.252 123.016 249.727 122.396 247.82 122.396C245.913 122.396 244.372 123.016 243.196 124.255C242.052 125.462 241.48 127.036 241.48 128.974V144.228C241.48 146.166 242.052 147.755 243.196 148.995C244.372 150.202 245.913 150.806 247.82 150.806ZM247.82 139.413C246.962 139.413 246.263 139.143 245.723 138.603C245.214 138.063 244.96 137.348 244.96 136.458C244.96 135.6 245.214 134.917 245.723 134.408C246.263 133.868 246.962 133.598 247.82 133.598C248.678 133.598 249.361 133.868 249.87 134.408C250.41 134.917 250.68 135.6 250.68 136.458C250.68 137.348 250.41 138.063 249.87 138.603C249.361 139.143 248.678 139.413 247.82 139.413ZM615.195 154V150.091H624.633V122.777L615.195 129.832V125.065L623.06 119.202H628.923V150.091H636.645V154H615.195ZM672.378 154.477C670.249 154.477 668.39 154.064 666.801 153.237C665.244 152.379 664.036 151.188 663.178 149.662C662.32 148.105 661.891 146.294 661.891 144.228V128.974C661.891 126.877 662.32 125.065 663.178 123.54C664.036 122.014 665.244 120.839 666.801 120.012C668.39 119.154 670.249 118.725 672.378 118.725C674.539 118.725 676.398 119.154 677.955 120.012C679.513 120.839 680.72 122.014 681.578 123.54C682.436 125.065 682.865 126.877 682.865 128.974V144.228C682.865 146.294 682.436 148.105 681.578 149.662C680.72 151.188 679.497 152.379 677.908 153.237C676.351 154.064 674.507 154.477 672.378 154.477ZM672.378 150.806C674.285 150.806 675.81 150.202 676.954 148.995C678.13 147.755 678.718 146.166 678.718 144.228V128.974C678.718 127.036 678.13 125.462 676.954 124.255C675.81 123.016 674.285 122.396 672.378 122.396C670.471 122.396 668.93 123.016 667.754 124.255C666.61 125.462 666.038 127.036 666.038 128.974V144.228C666.038 146.166 666.61 147.755 667.754 148.995C668.93 150.202 670.471 150.806 672.378 150.806ZM672.378 139.413C671.52 139.413 670.821 139.143 670.281 138.603C669.772 138.063 669.518 137.348 669.518 136.458C669.518 135.6 669.772 134.917 670.281 134.408C670.821 133.868 671.52 133.598 672.378 133.598C673.236 133.598 673.919 133.868 674.428 134.408C674.968 134.917 675.238 135.6 675.238 136.458C675.238 137.348 674.968 138.063 674.428 138.603C673.919 139.143 673.236 139.413 672.378 139.413ZM96.2902 217V213.091H105.729V185.777L96.2902 192.832V188.065L104.155 182.202H110.019V213.091H117.741V217H96.2902ZM530.859 217.477C528.73 217.477 526.87 217.064 525.282 216.237C523.724 215.379 522.517 214.188 521.659 212.662C520.801 211.105 520.372 209.294 520.372 207.228V191.974C520.372 189.877 520.801 188.065 521.659 186.54C522.517 185.014 523.724 183.839 525.282 183.012C526.87 182.154 528.73 181.725 530.859 181.725C533.02 181.725 534.879 182.154 536.436 183.012C537.993 183.839 539.201 185.014 540.059 186.54C540.917 188.065 541.346 189.877 541.346 191.974V207.228C541.346 209.294 540.917 211.105 540.059 212.662C539.201 214.188 537.977 215.379 536.388 216.237C534.831 217.064 532.988 217.477 530.859 217.477ZM530.859 213.806C532.765 213.806 534.291 213.202 535.435 211.995C536.611 210.755 537.199 209.166 537.199 207.228V191.974C537.199 190.036 536.611 188.462 535.435 187.255C534.291 186.016 532.765 185.396 530.859 185.396C528.952 185.396 527.411 186.016 526.235 187.255C525.091 188.462 524.519 190.036 524.519 191.974V207.228C524.519 209.166 525.091 210.755 526.235 211.995C527.411 213.202 528.952 213.806 530.859 213.806ZM530.859 202.413C530.001 202.413 529.302 202.143 528.761 201.603C528.253 201.063 527.999 200.348 527.999 199.458C527.999 198.6 528.253 197.917 528.761 197.408C529.302 196.868 530.001 196.598 530.859 196.598C531.717 196.598 532.4 196.868 532.908 197.408C533.449 197.917 533.719 198.6 533.719 199.458C533.719 200.348 533.449 201.063 532.908 201.603C532.4 202.143 531.717 202.413 530.859 202.413ZM568.021 217V213.091H577.46V185.777L568.021 192.832V188.065L575.887 182.202H581.75V213.091H589.472V217H568.021ZM625.205 217.477C623.076 217.477 621.217 217.064 619.628 216.237C618.071 215.379 616.863 214.188 616.005 212.662C615.147 211.105 614.718 209.294 614.718 207.228V191.974C614.718 189.877 615.147 188.065 616.005 186.54C616.863 185.014 618.071 183.839 619.628 183.012C621.217 182.154 623.076 181.725 625.205 181.725C627.366 181.725 629.225 182.154 630.782 183.012C632.339 183.839 633.547 185.014 634.405 186.54C635.263 188.065 635.692 189.877 635.692 191.974V207.228C635.692 209.294 635.263 211.105 634.405 212.662C633.547 214.188 632.323 215.379 630.735 216.237C629.177 217.064 627.334 217.477 625.205 217.477ZM625.205 213.806C627.112 213.806 628.637 213.202 629.781 211.995C630.957 210.755 631.545 209.166 631.545 207.228V191.974C631.545 190.036 630.957 188.462 629.781 187.255C628.637 186.016 627.112 185.396 625.205 185.396C623.298 185.396 621.757 186.016 620.581 187.255C619.437 188.462 618.865 190.036 618.865 191.974V207.228C618.865 209.166 619.437 210.755 620.581 211.995C621.757 213.202 623.298 213.806 625.205 213.806ZM625.205 202.413C624.347 202.413 623.648 202.143 623.108 201.603C622.599 201.063 622.345 200.348 622.345 199.458C622.345 198.6 622.599 197.917 623.108 197.408C623.648 196.868 624.347 196.598 625.205 196.598C626.063 196.598 626.746 196.868 627.255 197.408C627.795 197.917 628.065 198.6 628.065 199.458C628.065 200.348 627.795 201.063 627.255 201.603C626.746 202.143 626.063 202.413 625.205 202.413ZM672.378 217.477C670.249 217.477 668.39 217.064 666.801 216.237C665.244 215.379 664.036 214.188 663.178 212.662C662.32 211.105 661.891 209.294 661.891 207.228V191.974C661.891 189.877 662.32 188.065 663.178 186.54C664.036 185.014 665.244 183.839 666.801 183.012C668.39 182.154 670.249 181.725 672.378 181.725C674.539 181.725 676.398 182.154 677.955 183.012C679.513 183.839 680.72 185.014 681.578 186.54C682.436 188.065 682.865 189.877 682.865 191.974V207.228C682.865 209.294 682.436 211.105 681.578 212.662C680.72 214.188 679.497 215.379 677.908 216.237C676.351 217.064 674.507 217.477 672.378 217.477ZM672.378 213.806C674.285 213.806 675.81 213.202 676.954 211.995C678.13 210.755 678.718 209.166 678.718 207.228V191.974C678.718 190.036 678.13 188.462 676.954 187.255C675.81 186.016 674.285 185.396 672.378 185.396C670.471 185.396 668.93 186.016 667.754 187.255C666.61 188.462 666.038 190.036 666.038 191.974V207.228C666.038 209.166 666.61 210.755 667.754 211.995C668.93 213.202 670.471 213.806 672.378 213.806ZM672.378 202.413C671.52 202.413 670.821 202.143 670.281 201.603C669.772 201.063 669.518 200.348 669.518 199.458C669.518 198.6 669.772 197.917 670.281 197.408C670.821 196.868 671.52 196.598 672.378 196.598C673.236 196.598 673.919 196.868 674.428 197.408C674.968 197.917 675.238 198.6 675.238 199.458C675.238 200.348 674.968 201.063 674.428 201.603C673.919 202.143 673.236 202.413 672.378 202.413ZM96.2902 280V276.091H105.729V248.777L96.2902 255.832V251.065L104.155 245.202H110.019V276.091H117.741V280H96.2902ZM153.474 280.477C151.344 280.477 149.485 280.064 147.896 279.237C146.339 278.379 145.132 277.188 144.274 275.662C143.416 274.105 142.987 272.294 142.987 270.228V254.974C142.987 252.877 143.416 251.065 144.274 249.54C145.132 248.014 146.339 246.839 147.896 246.012C149.485 245.154 151.344 244.725 153.474 244.725C155.635 244.725 157.494 245.154 159.051 246.012C160.608 246.839 161.816 248.014 162.674 249.54C163.532 251.065 163.961 252.877 163.961 254.974V270.228C163.961 272.294 163.532 274.105 162.674 275.662C161.816 277.188 160.592 278.379 159.003 279.237C157.446 280.064 155.603 280.477 153.474 280.477ZM153.474 276.806C155.38 276.806 156.906 276.202 158.05 274.995C159.226 273.755 159.814 272.166 159.814 270.228V254.974C159.814 253.036 159.226 251.462 158.05 250.255C156.906 249.016 155.38 248.396 153.474 248.396C151.567 248.396 150.026 249.016 148.85 250.255C147.706 251.462 147.134 253.036 147.134 254.974V270.228C147.134 272.166 147.706 273.755 148.85 274.995C150.026 276.202 151.567 276.806 153.474 276.806ZM153.474 265.413C152.616 265.413 151.916 265.143 151.376 264.603C150.868 264.063 150.614 263.348 150.614 262.458C150.614 261.6 150.868 260.917 151.376 260.408C151.916 259.868 152.616 259.598 153.474 259.598C154.332 259.598 155.015 259.868 155.523 260.408C156.064 260.917 156.334 261.6 156.334 262.458C156.334 263.348 156.064 264.063 155.523 264.603C155.015 265.143 154.332 265.413 153.474 265.413ZM190.636 280V276.091H200.075V248.777L190.636 255.832V251.065L198.502 245.202H204.365V276.091H212.087V280H190.636ZM625.205 280.477C623.076 280.477 621.217 280.064 619.628 279.237C618.071 278.379 616.863 277.188 616.005 275.662C615.147 274.105 614.718 272.294 614.718 270.228V254.974C614.718 252.877 615.147 251.065 616.005 249.54C616.863 248.014 618.071 246.839 619.628 246.012C621.217 245.154 623.076 244.725 625.205 244.725C627.366 244.725 629.225 245.154 630.782 246.012C632.339 246.839 633.547 248.014 634.405 249.54C635.263 251.065 635.692 252.877 635.692 254.974V270.228C635.692 272.294 635.263 274.105 634.405 275.662C633.547 277.188 632.323 278.379 630.735 279.237C629.177 280.064 627.334 280.477 625.205 280.477ZM625.205 276.806C627.112 276.806 628.637 276.202 629.781 274.995C630.957 273.755 631.545 272.166 631.545 270.228V254.974C631.545 253.036 630.957 251.462 629.781 250.255C628.637 249.016 627.112 248.396 625.205 248.396C623.298 248.396 621.757 249.016 620.581 250.255C619.437 251.462 618.865 253.036 618.865 254.974V270.228C618.865 272.166 619.437 273.755 620.581 274.995C621.757 276.202 623.298 276.806 625.205 276.806ZM625.205 265.413C624.347 265.413 623.648 265.143 623.108 264.603C622.599 264.063 622.345 263.348 622.345 262.458C622.345 261.6 622.599 260.917 623.108 260.408C623.648 259.868 624.347 259.598 625.205 259.598C626.063 259.598 626.746 259.868 627.255 260.408C627.795 260.917 628.065 261.6 628.065 262.458C628.065 263.348 627.795 264.063 627.255 264.603C626.746 265.143 626.063 265.413 625.205 265.413ZM662.368 280V276.091H671.806V248.777L662.368 255.832V251.065L670.233 245.202H676.096V276.091H683.819V280H662.368ZM106.301 343.477C104.171 343.477 102.312 343.064 100.723 342.237C99.1662 341.379 97.9586 340.188 97.1005 338.662C96.2425 337.105 95.8135 335.294 95.8135 333.228V317.974C95.8135 315.877 96.2425 314.065 97.1005 312.54C97.9586 311.014 99.1662 309.839 100.723 309.012C102.312 308.154 104.171 307.725 106.301 307.725C108.462 307.725 110.321 308.154 111.878 309.012C113.435 309.839 114.643 311.014 115.501 312.54C116.359 314.065 116.788 315.877 116.788 317.974V333.228C116.788 335.294 116.359 337.105 115.501 338.662C114.643 340.188 113.419 341.379 111.83 342.237C110.273 343.064 108.43 343.477 106.301 343.477ZM106.301 339.806C108.207 339.806 109.733 339.202 110.877 337.995C112.053 336.755 112.64 335.166 112.64 333.228V317.974C112.64 316.036 112.053 314.462 110.877 313.255C109.733 312.016 108.207 311.396 106.301 311.396C104.394 311.396 102.853 312.016 101.677 313.255C100.533 314.462 99.9606 316.036 99.9606 317.974V333.228C99.9606 335.166 100.533 336.755 101.677 337.995C102.853 339.202 104.394 339.806 106.301 339.806ZM106.301 328.413C105.442 328.413 104.743 328.143 104.203 327.603C103.695 327.063 103.44 326.348 103.44 325.458C103.44 324.6 103.695 323.917 104.203 323.408C104.743 322.868 105.442 322.598 106.301 322.598C107.159 322.598 107.842 322.868 108.35 323.408C108.891 323.917 109.161 324.6 109.161 325.458C109.161 326.348 108.891 327.063 108.35 327.603C107.842 328.143 107.159 328.413 106.301 328.413ZM143.463 343V339.091H152.902V311.777L143.463 318.832V314.065L151.329 308.202H157.192V339.091H164.914V343H143.463ZM200.647 343.477C198.518 343.477 196.659 343.064 195.07 342.237C193.512 341.379 192.305 340.188 191.447 338.662C190.589 337.105 190.16 335.294 190.16 333.228V317.974C190.16 315.877 190.589 314.065 191.447 312.54C192.305 311.014 193.512 309.839 195.07 309.012C196.659 308.154 198.518 307.725 200.647 307.725C202.808 307.725 204.667 308.154 206.224 309.012C207.781 309.839 208.989 311.014 209.847 312.54C210.705 314.065 211.134 315.877 211.134 317.974V333.228C211.134 335.294 210.705 337.105 209.847 338.662C208.989 340.188 207.765 341.379 206.176 342.237C204.619 343.064 202.776 343.477 200.647 343.477ZM200.647 339.806C202.554 339.806 204.079 339.202 205.223 337.995C206.399 336.755 206.987 335.166 206.987 333.228V317.974C206.987 316.036 206.399 314.462 205.223 313.255C204.079 312.016 202.554 311.396 200.647 311.396C198.74 311.396 197.199 312.016 196.023 313.255C194.879 314.462 194.307 316.036 194.307 317.974V333.228C194.307 335.166 194.879 336.755 196.023 337.995C197.199 339.202 198.74 339.806 200.647 339.806ZM200.647 328.413C199.789 328.413 199.09 328.143 198.549 327.603C198.041 327.063 197.787 326.348 197.787 325.458C197.787 324.6 198.041 323.917 198.549 323.408C199.09 322.868 199.789 322.598 200.647 322.598C201.505 322.598 202.188 322.868 202.697 323.408C203.237 323.917 203.507 324.6 203.507 325.458C203.507 326.348 203.237 327.063 202.697 327.603C202.188 328.143 201.505 328.413 200.647 328.413ZM237.81 343V339.091H247.248V311.777L237.81 318.832V314.065L245.675 308.202H251.538V339.091H259.26V343H237.81ZM294.993 343.477C292.864 343.477 291.005 343.064 289.416 342.237C287.859 341.379 286.651 340.188 285.793 338.662C284.935 337.105 284.506 335.294 284.506 333.228V317.974C284.506 315.877 284.935 314.065 285.793 312.54C286.651 311.014 287.859 309.839 289.416 309.012C291.005 308.154 292.864 307.725 294.993 307.725C297.154 307.725 299.013 308.154 300.57 309.012C302.127 309.839 303.335 311.014 304.193 312.54C305.051 314.065 305.48 315.877 305.48 317.974V333.228C305.48 335.294 305.051 337.105 304.193 338.662C303.335 340.188 302.112 341.379 300.523 342.237C298.965 343.064 297.122 343.477 294.993 343.477ZM294.993 339.806C296.9 339.806 298.425 339.202 299.569 337.995C300.745 336.755 301.333 335.166 301.333 333.228V317.974C301.333 316.036 300.745 314.462 299.569 313.255C298.425 312.016 296.9 311.396 294.993 311.396C293.086 311.396 291.545 312.016 290.369 313.255C289.225 314.462 288.653 316.036 288.653 317.974V333.228C288.653 335.166 289.225 336.755 290.369 337.995C291.545 339.202 293.086 339.806 294.993 339.806ZM294.993 328.413C294.135 328.413 293.436 328.143 292.896 327.603C292.387 327.063 292.133 326.348 292.133 325.458C292.133 324.6 292.387 323.917 292.896 323.408C293.436 322.868 294.135 322.598 294.993 322.598C295.851 322.598 296.534 322.868 297.043 323.408C297.583 323.917 297.853 324.6 297.853 325.458C297.853 326.348 297.583 327.063 297.043 327.603C296.534 328.143 295.851 328.413 294.993 328.413ZM332.156 343V339.091H341.594V311.777L332.156 318.832V314.065L340.021 308.202H345.884V339.091H353.607V343H332.156ZM389.339 343.477C387.21 343.477 385.351 343.064 383.762 342.237C382.205 341.379 380.997 340.188 380.139 338.662C379.281 337.105 378.852 335.294 378.852 333.228V317.974C378.852 315.877 379.281 314.065 380.139 312.54C380.997 311.014 382.205 309.839 383.762 309.012C385.351 308.154 387.21 307.725 389.339 307.725C391.5 307.725 393.359 308.154 394.917 309.012C396.474 309.839 397.681 311.014 398.539 312.54C399.397 314.065 399.826 315.877 399.826 317.974V333.228C399.826 335.294 399.397 337.105 398.539 338.662C397.681 340.188 396.458 341.379 394.869 342.237C393.312 343.064 391.469 343.477 389.339 343.477ZM389.339 339.806C391.246 339.806 392.771 339.202 393.916 337.995C395.091 336.755 395.679 335.166 395.679 333.228V317.974C395.679 316.036 395.091 314.462 393.916 313.255C392.771 312.016 391.246 311.396 389.339 311.396C387.433 311.396 385.891 312.016 384.716 313.255C383.571 314.462 382.999 316.036 382.999 317.974V333.228C382.999 335.166 383.571 336.755 384.716 337.995C385.891 339.202 387.433 339.806 389.339 339.806ZM389.339 328.413C388.481 328.413 387.782 328.143 387.242 327.603C386.733 327.063 386.479 326.348 386.479 325.458C386.479 324.6 386.733 323.917 387.242 323.408C387.782 322.868 388.481 322.598 389.339 322.598C390.197 322.598 390.881 322.868 391.389 323.408C391.929 323.917 392.199 324.6 392.199 325.458C392.199 326.348 391.929 327.063 391.389 327.603C390.881 328.143 390.197 328.413 389.339 328.413ZM426.502 343V339.091H435.94V311.777L426.502 318.832V314.065L434.367 308.202H440.231V339.091H447.953V343H426.502ZM483.686 343.477C481.556 343.477 479.697 343.064 478.108 342.237C476.551 341.379 475.344 340.188 474.486 338.662C473.628 337.105 473.199 335.294 473.199 333.228V317.974C473.199 315.877 473.628 314.065 474.486 312.54C475.344 311.014 476.551 309.839 478.108 309.012C479.697 308.154 481.556 307.725 483.686 307.725C485.847 307.725 487.706 308.154 489.263 309.012C490.82 309.839 492.028 311.014 492.886 312.54C493.744 314.065 494.173 315.877 494.173 317.974V333.228C494.173 335.294 493.744 337.105 492.886 338.662C492.028 340.188 490.804 341.379 489.215 342.237C487.658 343.064 485.815 343.477 483.686 343.477ZM483.686 339.806C485.592 339.806 487.118 339.202 488.262 337.995C489.438 336.755 490.026 335.166 490.026 333.228V317.974C490.026 316.036 489.438 314.462 488.262 313.255C487.118 312.016 485.592 311.396 483.686 311.396C481.779 311.396 480.238 312.016 479.062 313.255C477.918 314.462 477.346 316.036 477.346 317.974V333.228C477.346 335.166 477.918 336.755 479.062 337.995C480.238 339.202 481.779 339.806 483.686 339.806ZM483.686 328.413C482.828 328.413 482.128 328.143 481.588 327.603C481.08 327.063 480.825 326.348 480.825 325.458C480.825 324.6 481.08 323.917 481.588 323.408C482.128 322.868 482.828 322.598 483.686 322.598C484.544 322.598 485.227 322.868 485.735 323.408C486.276 323.917 486.546 324.6 486.546 325.458C486.546 326.348 486.276 327.063 485.735 327.603C485.227 328.143 484.544 328.413 483.686 328.413ZM520.848 343V339.091H530.287V311.777L520.848 318.832V314.065L528.714 308.202H534.577V339.091H542.299V343H520.848ZM578.032 343.477C575.903 343.477 574.044 343.064 572.455 342.237C570.897 341.379 569.69 340.188 568.832 338.662C567.974 337.105 567.545 335.294 567.545 333.228V317.974C567.545 315.877 567.974 314.065 568.832 312.54C569.69 311.014 570.897 309.839 572.455 309.012C574.044 308.154 575.903 307.725 578.032 307.725C580.193 307.725 582.052 308.154 583.609 309.012C585.166 309.839 586.374 311.014 587.232 312.54C588.09 314.065 588.519 315.877 588.519 317.974V333.228C588.519 335.294 588.09 337.105 587.232 338.662C586.374 340.188 585.15 341.379 583.561 342.237C582.004 343.064 580.161 343.477 578.032 343.477ZM578.032 339.806C579.939 339.806 581.464 339.202 582.608 337.995C583.784 336.755 584.372 335.166 584.372 333.228V317.974C584.372 316.036 583.784 314.462 582.608 313.255C581.464 312.016 579.939 311.396 578.032 311.396C576.125 311.396 574.584 312.016 573.408 313.255C572.264 314.462 571.692 316.036 571.692 317.974V333.228C571.692 335.166 572.264 336.755 573.408 337.995C574.584 339.202 576.125 339.806 578.032 339.806ZM578.032 328.413C577.174 328.413 576.475 328.143 575.934 327.603C575.426 327.063 575.172 326.348 575.172 325.458C575.172 324.6 575.426 323.917 575.934 323.408C576.475 322.868 577.174 322.598 578.032 322.598C578.89 322.598 579.573 322.868 580.082 323.408C580.622 323.917 580.892 324.6 580.892 325.458C580.892 326.348 580.622 327.063 580.082 327.603C579.573 328.143 578.89 328.413 578.032 328.413ZM615.195 343V339.091H624.633V311.777L615.195 318.832V314.065L623.06 308.202H628.923V339.091H636.645V343H615.195ZM672.378 343.477C670.249 343.477 668.39 343.064 666.801 342.237C665.244 341.379 664.036 340.188 663.178 338.662C662.32 337.105 661.891 335.294 661.891 333.228V317.974C661.891 315.877 662.32 314.065 663.178 312.54C664.036 311.014 665.244 309.839 666.801 309.012C668.39 308.154 670.249 307.725 672.378 307.725C674.539 307.725 676.398 308.154 677.955 309.012C679.513 309.839 680.72 311.014 681.578 312.54C682.436 314.065 682.865 315.877 682.865 317.974V333.228C682.865 335.294 682.436 337.105 681.578 338.662C680.72 340.188 679.497 341.379 677.908 342.237C676.351 343.064 674.507 343.477 672.378 343.477ZM672.378 339.806C674.285 339.806 675.81 339.202 676.954 337.995C678.13 336.755 678.718 335.166 678.718 333.228V317.974C678.718 316.036 678.13 314.462 676.954 313.255C675.81 312.016 674.285 311.396 672.378 311.396C670.471 311.396 668.93 312.016 667.754 313.255C666.61 314.462 666.038 316.036 666.038 317.974V333.228C666.038 335.166 666.61 336.755 667.754 337.995C668.93 339.202 670.471 339.806 672.378 339.806ZM672.378 328.413C671.52 328.413 670.821 328.143 670.281 327.603C669.772 327.063 669.518 326.348 669.518 325.458C669.518 324.6 669.772 323.917 670.281 323.408C670.821 322.868 671.52 322.598 672.378 322.598C673.236 322.598 673.919 322.868 674.428 323.408C674.968 323.917 675.238 324.6 675.238 325.458C675.238 326.348 674.968 327.063 674.428 327.603C673.919 328.143 673.236 328.413 672.378 328.413ZM106.301 406.477C104.171 406.477 102.312 406.064 100.723 405.237C99.1662 404.379 97.9586 403.188 97.1005 401.662C96.2425 400.105 95.8135 398.294 95.8135 396.228V380.974C95.8135 378.877 96.2425 377.065 97.1005 375.54C97.9586 374.014 99.1662 372.839 100.723 372.012C102.312 371.154 104.171 370.725 106.301 370.725C108.462 370.725 110.321 371.154 111.878 372.012C113.435 372.839 114.643 374.014 115.501 375.54C116.359 377.065 116.788 378.877 116.788 380.974V396.228C116.788 398.294 116.359 400.105 115.501 401.662C114.643 403.188 113.419 404.379 111.83 405.237C110.273 406.064 108.43 406.477 106.301 406.477ZM106.301 402.806C108.207 402.806 109.733 402.202 110.877 400.995C112.053 399.755 112.64 398.166 112.64 396.228V380.974C112.64 379.036 112.053 377.462 110.877 376.255C109.733 375.016 108.207 374.396 106.301 374.396C104.394 374.396 102.853 375.016 101.677 376.255C100.533 377.462 99.9606 379.036 99.9606 380.974V396.228C99.9606 398.166 100.533 399.755 101.677 400.995C102.853 402.202 104.394 402.806 106.301 402.806ZM106.301 391.413C105.442 391.413 104.743 391.143 104.203 390.603C103.695 390.063 103.44 389.348 103.44 388.458C103.44 387.6 103.695 386.917 104.203 386.408C104.743 385.868 105.442 385.598 106.301 385.598C107.159 385.598 107.842 385.868 108.35 386.408C108.891 386.917 109.161 387.6 109.161 388.458C109.161 389.348 108.891 390.063 108.35 390.603C107.842 391.143 107.159 391.413 106.301 391.413ZM143.463 406V402.091H152.902V374.777L143.463 381.832V377.065L151.329 371.202H157.192V402.091H164.914V406H143.463ZM200.647 406.477C198.518 406.477 196.659 406.064 195.07 405.237C193.512 404.379 192.305 403.188 191.447 401.662C190.589 400.105 190.16 398.294 190.16 396.228V380.974C190.16 378.877 190.589 377.065 191.447 375.54C192.305 374.014 193.512 372.839 195.07 372.012C196.659 371.154 198.518 370.725 200.647 370.725C202.808 370.725 204.667 371.154 206.224 372.012C207.781 372.839 208.989 374.014 209.847 375.54C210.705 377.065 211.134 378.877 211.134 380.974V396.228C211.134 398.294 210.705 400.105 209.847 401.662C208.989 403.188 207.765 404.379 206.176 405.237C204.619 406.064 202.776 406.477 200.647 406.477ZM200.647 402.806C202.554 402.806 204.079 402.202 205.223 400.995C206.399 399.755 206.987 398.166 206.987 396.228V380.974C206.987 379.036 206.399 377.462 205.223 376.255C204.079 375.016 202.554 374.396 200.647 374.396C198.74 374.396 197.199 375.016 196.023 376.255C194.879 377.462 194.307 379.036 194.307 380.974V396.228C194.307 398.166 194.879 399.755 196.023 400.995C197.199 402.202 198.74 402.806 200.647 402.806ZM200.647 391.413C199.789 391.413 199.09 391.143 198.549 390.603C198.041 390.063 197.787 389.348 197.787 388.458C197.787 387.6 198.041 386.917 198.549 386.408C199.09 385.868 199.789 385.598 200.647 385.598C201.505 385.598 202.188 385.868 202.697 386.408C203.237 386.917 203.507 387.6 203.507 388.458C203.507 389.348 203.237 390.063 202.697 390.603C202.188 391.143 201.505 391.413 200.647 391.413ZM247.82 406.477C245.691 406.477 243.832 406.064 242.243 405.237C240.686 404.379 239.478 403.188 238.62 401.662C237.762 400.105 237.333 398.294 237.333 396.228V380.974C237.333 378.877 237.762 377.065 238.62 375.54C239.478 374.014 240.686 372.839 242.243 372.012C243.832 371.154 245.691 370.725 247.82 370.725C249.981 370.725 251.84 371.154 253.397 372.012C254.954 372.839 256.162 374.014 257.02 375.54C257.878 377.065 258.307 378.877 258.307 380.974V396.228C258.307 398.294 257.878 400.105 257.02 401.662C256.162 403.188 254.938 404.379 253.349 405.237C251.792 406.064 249.949 406.477 247.82 406.477ZM247.82 402.806C249.727 402.806 251.252 402.202 252.396 400.995C253.572 399.755 254.16 398.166 254.16 396.228V380.974C254.16 379.036 253.572 377.462 252.396 376.255C251.252 375.016 249.727 374.396 247.82 374.396C245.913 374.396 244.372 375.016 243.196 376.255C242.052 377.462 241.48 379.036 241.48 380.974V396.228C241.48 398.166 242.052 399.755 243.196 400.995C244.372 402.202 245.913 402.806 247.82 402.806ZM247.82 391.413C246.962 391.413 246.263 391.143 245.723 390.603C245.214 390.063 244.96 389.348 244.96 388.458C244.96 387.6 245.214 386.917 245.723 386.408C246.263 385.868 246.962 385.598 247.82 385.598C248.678 385.598 249.361 385.868 249.87 386.408C250.41 386.917 250.68 387.6 250.68 388.458C250.68 389.348 250.41 390.063 249.87 390.603C249.361 391.143 248.678 391.413 247.82 391.413ZM284.983 406V402.091H294.421V374.777L284.983 381.832V377.065L292.848 371.202H298.711V402.091H306.433V406H284.983ZM342.166 406.477C340.037 406.477 338.178 406.064 336.589 405.237C335.032 404.379 333.824 403.188 332.966 401.662C332.108 400.105 331.679 398.294 331.679 396.228V380.974C331.679 378.877 332.108 377.065 332.966 375.54C333.824 374.014 335.032 372.839 336.589 372.012C338.178 371.154 340.037 370.725 342.166 370.725C344.327 370.725 346.186 371.154 347.743 372.012C349.301 372.839 350.508 374.014 351.366 375.54C352.224 377.065 352.653 378.877 352.653 380.974V396.228C352.653 398.294 352.224 400.105 351.366 401.662C350.508 403.188 349.285 404.379 347.696 405.237C346.139 406.064 344.295 406.477 342.166 406.477ZM342.166 402.806C344.073 402.806 345.598 402.202 346.742 400.995C347.918 399.755 348.506 398.166 348.506 396.228V380.974C348.506 379.036 347.918 377.462 346.742 376.255C345.598 375.016 344.073 374.396 342.166 374.396C340.259 374.396 338.718 375.016 337.542 376.255C336.398 377.462 335.826 379.036 335.826 380.974V396.228C335.826 398.166 336.398 399.755 337.542 400.995C338.718 402.202 340.259 402.806 342.166 402.806ZM342.166 391.413C341.308 391.413 340.609 391.143 340.069 390.603C339.56 390.063 339.306 389.348 339.306 388.458C339.306 387.6 339.56 386.917 340.069 386.408C340.609 385.868 341.308 385.598 342.166 385.598C343.024 385.598 343.707 385.868 344.216 386.408C344.756 386.917 345.026 387.6 345.026 388.458C345.026 389.348 344.756 390.063 344.216 390.603C343.707 391.143 343.024 391.413 342.166 391.413ZM436.512 406.477C434.383 406.477 432.524 406.064 430.935 405.237C429.378 404.379 428.17 403.188 427.312 401.662C426.454 400.105 426.025 398.294 426.025 396.228V380.974C426.025 378.877 426.454 377.065 427.312 375.54C428.17 374.014 429.378 372.839 430.935 372.012C432.524 371.154 434.383 370.725 436.512 370.725C438.673 370.725 440.533 371.154 442.09 372.012C443.647 372.839 444.854 374.014 445.712 375.54C446.571 377.065 447 378.877 447 380.974V396.228C447 398.294 446.571 400.105 445.712 401.662C444.854 403.188 443.631 404.379 442.042 405.237C440.485 406.064 438.642 406.477 436.512 406.477ZM436.512 402.806C438.419 402.806 439.945 402.202 441.089 400.995C442.264 399.755 442.852 398.166 442.852 396.228V380.974C442.852 379.036 442.264 377.462 441.089 376.255C439.945 375.016 438.419 374.396 436.512 374.396C434.606 374.396 433.064 375.016 431.889 376.255C430.745 377.462 430.173 379.036 430.173 380.974V396.228C430.173 398.166 430.745 399.755 431.889 400.995C433.064 402.202 434.606 402.806 436.512 402.806ZM436.512 391.413C435.654 391.413 434.955 391.143 434.415 390.603C433.907 390.063 433.652 389.348 433.652 388.458C433.652 387.6 433.907 386.917 434.415 386.408C434.955 385.868 435.654 385.598 436.512 385.598C437.371 385.598 438.054 385.868 438.562 386.408C439.102 386.917 439.373 387.6 439.373 388.458C439.373 389.348 439.102 390.063 438.562 390.603C438.054 391.143 437.371 391.413 436.512 391.413ZM473.675 406V402.091H483.114V374.777L473.675 381.832V377.065L481.541 371.202H487.404V402.091H495.126V406H473.675ZM520.848 406V402.091H530.287V374.777L520.848 381.832V377.065L528.714 371.202H534.577V402.091H542.299V406H520.848ZM568.021 406V402.091H577.46V374.777L568.021 381.832V377.065L575.887 371.202H581.75V402.091H589.472V406H568.021ZM615.195 406V402.091H624.633V374.777L615.195 381.832V377.065L623.06 371.202H628.923V402.091H636.645V406H615.195ZM662.368 406V402.091H671.806V374.777L662.368 381.832V377.065L670.233 371.202H676.096V402.091H683.819V406H662.368ZM106.301 469.477C104.171 469.477 102.312 469.064 100.723 468.237C99.1662 467.379 97.9586 466.188 97.1005 464.662C96.2425 463.105 95.8135 461.294 95.8135 459.228V443.974C95.8135 441.877 96.2425 440.065 97.1005 438.54C97.9586 437.014 99.1662 435.839 100.723 435.012C102.312 434.154 104.171 433.725 106.301 433.725C108.462 433.725 110.321 434.154 111.878 435.012C113.435 435.839 114.643 437.014 115.501 438.54C116.359 440.065 116.788 441.877 116.788 443.974V459.228C116.788 461.294 116.359 463.105 115.501 464.662C114.643 466.188 113.419 467.379 111.83 468.237C110.273 469.064 108.43 469.477 106.301 469.477ZM106.301 465.806C108.207 465.806 109.733 465.202 110.877 463.995C112.053 462.755 112.64 461.166 112.64 459.228V443.974C112.64 442.036 112.053 440.462 110.877 439.255C109.733 438.016 108.207 437.396 106.301 437.396C104.394 437.396 102.853 438.016 101.677 439.255C100.533 440.462 99.9606 442.036 99.9606 443.974V459.228C99.9606 461.166 100.533 462.755 101.677 463.995C102.853 465.202 104.394 465.806 106.301 465.806ZM106.301 454.413C105.442 454.413 104.743 454.143 104.203 453.603C103.695 453.063 103.44 452.348 103.44 451.458C103.44 450.6 103.695 449.917 104.203 449.408C104.743 448.868 105.442 448.598 106.301 448.598C107.159 448.598 107.842 448.868 108.35 449.408C108.891 449.917 109.161 450.6 109.161 451.458C109.161 452.348 108.891 453.063 108.35 453.603C107.842 454.143 107.159 454.413 106.301 454.413ZM200.647 469.477C198.518 469.477 196.659 469.064 195.07 468.237C193.512 467.379 192.305 466.188 191.447 464.662C190.589 463.105 190.16 461.294 190.16 459.228V443.974C190.16 441.877 190.589 440.065 191.447 438.54C192.305 437.014 193.512 435.839 195.07 435.012C196.659 434.154 198.518 433.725 200.647 433.725C202.808 433.725 204.667 434.154 206.224 435.012C207.781 435.839 208.989 437.014 209.847 438.54C210.705 440.065 211.134 441.877 211.134 443.974V459.228C211.134 461.294 210.705 463.105 209.847 464.662C208.989 466.188 207.765 467.379 206.176 468.237C204.619 469.064 202.776 469.477 200.647 469.477ZM200.647 465.806C202.554 465.806 204.079 465.202 205.223 463.995C206.399 462.755 206.987 461.166 206.987 459.228V443.974C206.987 442.036 206.399 440.462 205.223 439.255C204.079 438.016 202.554 437.396 200.647 437.396C198.74 437.396 197.199 438.016 196.023 439.255C194.879 440.462 194.307 442.036 194.307 443.974V459.228C194.307 461.166 194.879 462.755 196.023 463.995C197.199 465.202 198.74 465.806 200.647 465.806ZM200.647 454.413C199.789 454.413 199.09 454.143 198.549 453.603C198.041 453.063 197.787 452.348 197.787 451.458C197.787 450.6 198.041 449.917 198.549 449.408C199.09 448.868 199.789 448.598 200.647 448.598C201.505 448.598 202.188 448.868 202.697 449.408C203.237 449.917 203.507 450.6 203.507 451.458C203.507 452.348 203.237 453.063 202.697 453.603C202.188 454.143 201.505 454.413 200.647 454.413ZM294.993 469.477C292.864 469.477 291.005 469.064 289.416 468.237C287.859 467.379 286.651 466.188 285.793 464.662C284.935 463.105 284.506 461.294 284.506 459.228V443.974C284.506 441.877 284.935 440.065 285.793 438.54C286.651 437.014 287.859 435.839 289.416 435.012C291.005 434.154 292.864 433.725 294.993 433.725C297.154 433.725 299.013 434.154 300.57 435.012C302.127 435.839 303.335 437.014 304.193 438.54C305.051 440.065 305.48 441.877 305.48 443.974V459.228C305.48 461.294 305.051 463.105 304.193 464.662C303.335 466.188 302.112 467.379 300.523 468.237C298.965 469.064 297.122 469.477 294.993 469.477ZM294.993 465.806C296.9 465.806 298.425 465.202 299.569 463.995C300.745 462.755 301.333 461.166 301.333 459.228V443.974C301.333 442.036 300.745 440.462 299.569 439.255C298.425 438.016 296.9 437.396 294.993 437.396C293.086 437.396 291.545 438.016 290.369 439.255C289.225 440.462 288.653 442.036 288.653 443.974V459.228C288.653 461.166 289.225 462.755 290.369 463.995C291.545 465.202 293.086 465.806 294.993 465.806ZM294.993 454.413C294.135 454.413 293.436 454.143 292.896 453.603C292.387 453.063 292.133 452.348 292.133 451.458C292.133 450.6 292.387 449.917 292.896 449.408C293.436 448.868 294.135 448.598 294.993 448.598C295.851 448.598 296.534 448.868 297.043 449.408C297.583 449.917 297.853 450.6 297.853 451.458C297.853 452.348 297.583 453.063 297.043 453.603C296.534 454.143 295.851 454.413 294.993 454.413ZM332.156 469V465.091H341.594V437.777L332.156 444.832V440.065L340.021 434.202H345.884V465.091H353.607V469H332.156ZM520.848 469V465.091H530.287V437.777L520.848 444.832V440.065L528.714 434.202H534.577V465.091H542.299V469H520.848ZM578.032 469.477C575.903 469.477 574.044 469.064 572.455 468.237C570.897 467.379 569.69 466.188 568.832 464.662C567.974 463.105 567.545 461.294 567.545 459.228V443.974C567.545 441.877 567.974 440.065 568.832 438.54C569.69 437.014 570.897 435.839 572.455 435.012C574.044 434.154 575.903 433.725 578.032 433.725C580.193 433.725 582.052 434.154 583.609 435.012C585.166 435.839 586.374 437.014 587.232 438.54C588.09 440.065 588.519 441.877 588.519 443.974V459.228C588.519 461.294 588.09 463.105 587.232 464.662C586.374 466.188 585.15 467.379 583.561 468.237C582.004 469.064 580.161 469.477 578.032 469.477ZM578.032 465.806C579.939 465.806 581.464 465.202 582.608 463.995C583.784 462.755 584.372 461.166 584.372 459.228V443.974C584.372 442.036 583.784 440.462 582.608 439.255C581.464 438.016 579.939 437.396 578.032 437.396C576.125 437.396 574.584 438.016 573.408 439.255C572.264 440.462 571.692 442.036 571.692 443.974V459.228C571.692 461.166 572.264 462.755 573.408 463.995C574.584 465.202 576.125 465.806 578.032 465.806ZM578.032 454.413C577.174 454.413 576.475 454.143 575.934 453.603C575.426 453.063 575.172 452.348 575.172 451.458C575.172 450.6 575.426 449.917 575.934 449.408C576.475 448.868 577.174 448.598 578.032 448.598C578.89 448.598 579.573 448.868 580.082 449.408C580.622 449.917 580.892 450.6 580.892 451.458C580.892 452.348 580.622 453.063 580.082 453.603C579.573 454.143 578.89 454.413 578.032 454.413ZM672.378 469.477C670.249 469.477 668.39 469.064 666.801 468.237C665.244 467.379 664.036 466.188 663.178 464.662C662.32 463.105 661.891 461.294 661.891 459.228V443.974C661.891 441.877 662.32 440.065 663.178 438.54C664.036 437.014 665.244 435.839 666.801 435.012C668.39 434.154 670.249 433.725 672.378 433.725C674.539 433.725 676.398 434.154 677.955 435.012C679.513 435.839 680.72 437.014 681.578 438.54C682.436 440.065 682.865 441.877 682.865 443.974V459.228C682.865 461.294 682.436 463.105 681.578 464.662C680.72 466.188 679.497 467.379 677.908 468.237C676.351 469.064 674.507 469.477 672.378 469.477ZM672.378 465.806C674.285 465.806 675.81 465.202 676.954 463.995C678.13 462.755 678.718 461.166 678.718 459.228V443.974C678.718 442.036 678.13 440.462 676.954 439.255C675.81 438.016 674.285 437.396 672.378 437.396C670.471 437.396 668.93 438.016 667.754 439.255C666.61 440.462 666.038 442.036 666.038 443.974V459.228C666.038 461.166 666.61 462.755 667.754 463.995C668.93 465.202 670.471 465.806 672.378 465.806ZM672.378 454.413C671.52 454.413 670.821 454.143 670.281 453.603C669.772 453.063 669.518 452.348 669.518 451.458C669.518 450.6 669.772 449.917 670.281 449.408C670.821 448.868 671.52 448.598 672.378 448.598C673.236 448.598 673.919 448.868 674.428 449.408C674.968 449.917 675.238 450.6 675.238 451.458C675.238 452.348 674.968 453.063 674.428 453.603C673.919 454.143 673.236 454.413 672.378 454.413ZM106.301 532.477C104.171 532.477 102.312 532.064 100.723 531.237C99.1662 530.379 97.9586 529.188 97.1005 527.662C96.2425 526.105 95.8135 524.294 95.8135 522.228V506.974C95.8135 504.877 96.2425 503.065 97.1005 501.54C97.9586 500.014 99.1662 498.839 100.723 498.012C102.312 497.154 104.171 496.725 106.301 496.725C108.462 496.725 110.321 497.154 111.878 498.012C113.435 498.839 114.643 500.014 115.501 501.54C116.359 503.065 116.788 504.877 116.788 506.974V522.228C116.788 524.294 116.359 526.105 115.501 527.662C114.643 529.188 113.419 530.379 111.83 531.237C110.273 532.064 108.43 532.477 106.301 532.477ZM106.301 528.806C108.207 528.806 109.733 528.202 110.877 526.995C112.053 525.755 112.64 524.166 112.64 522.228V506.974C112.64 505.036 112.053 503.462 110.877 502.255C109.733 501.016 108.207 500.396 106.301 500.396C104.394 500.396 102.853 501.016 101.677 502.255C100.533 503.462 99.9606 505.036 99.9606 506.974V522.228C99.9606 524.166 100.533 525.755 101.677 526.995C102.853 528.202 104.394 528.806 106.301 528.806ZM106.301 517.413C105.442 517.413 104.743 517.143 104.203 516.603C103.695 516.063 103.44 515.348 103.44 514.458C103.44 513.6 103.695 512.917 104.203 512.408C104.743 511.868 105.442 511.598 106.301 511.598C107.159 511.598 107.842 511.868 108.35 512.408C108.891 512.917 109.161 513.6 109.161 514.458C109.161 515.348 108.891 516.063 108.35 516.603C107.842 517.143 107.159 517.413 106.301 517.413ZM284.983 532V528.091H294.421V500.777L284.983 507.832V503.065L292.848 497.202H298.711V528.091H306.433V532H284.983ZM520.848 532V528.091H530.287V500.777L520.848 507.832V503.065L528.714 497.202H534.577V528.091H542.299V532H520.848ZM578.032 532.477C575.903 532.477 574.044 532.064 572.455 531.237C570.897 530.379 569.69 529.188 568.832 527.662C567.974 526.105 567.545 524.294 567.545 522.228V506.974C567.545 504.877 567.974 503.065 568.832 501.54C569.69 500.014 570.897 498.839 572.455 498.012C574.044 497.154 575.903 496.725 578.032 496.725C580.193 496.725 582.052 497.154 583.609 498.012C585.166 498.839 586.374 500.014 587.232 501.54C588.09 503.065 588.519 504.877 588.519 506.974V522.228C588.519 524.294 588.09 526.105 587.232 527.662C586.374 529.188 585.15 530.379 583.561 531.237C582.004 532.064 580.161 532.477 578.032 532.477ZM578.032 528.806C579.939 528.806 581.464 528.202 582.608 526.995C583.784 525.755 584.372 524.166 584.372 522.228V506.974C584.372 505.036 583.784 503.462 582.608 502.255C581.464 501.016 579.939 500.396 578.032 500.396C576.125 500.396 574.584 501.016 573.408 502.255C572.264 503.462 571.692 505.036 571.692 506.974V522.228C571.692 524.166 572.264 525.755 573.408 526.995C574.584 528.202 576.125 528.806 578.032 528.806ZM578.032 517.413C577.174 517.413 576.475 517.143 575.934 516.603C575.426 516.063 575.172 515.348 575.172 514.458C575.172 513.6 575.426 512.917 575.934 512.408C576.475 511.868 577.174 511.598 578.032 511.598C578.89 511.598 579.573 511.868 580.082 512.408C580.622 512.917 580.892 513.6 580.892 514.458C580.892 515.348 580.622 516.063 580.082 516.603C579.573 517.143 578.89 517.413 578.032 517.413ZM662.368 532V528.091H671.806V500.777L662.368 507.832V503.065L670.233 497.202H676.096V528.091H683.819V532H662.368ZM96.2902 595V591.091H105.729V563.777L96.2902 570.832V566.065L104.155 560.202H110.019V591.091H117.741V595H96.2902ZM284.983 595V591.091H294.421V563.777L284.983 570.832V566.065L292.848 560.202H298.711V591.091H306.433V595H284.983ZM662.368 595V591.091H671.806V563.777L662.368 570.832V566.065L670.233 560.202H676.096V591.091H683.819V595H662.368Z" fill="#4285F4"/>
<path d="M295.184 154.477C292.864 154.477 290.83 154.048 289.082 153.19C287.334 152.3 285.968 151.076 284.983 149.519C284.029 147.93 283.553 146.087 283.553 143.99V129.212C283.553 127.083 284.029 125.24 284.983 123.683C285.968 122.126 287.334 120.918 289.082 120.06C290.83 119.17 292.864 118.725 295.184 118.725C297.535 118.725 299.569 119.17 301.285 120.06C303.033 120.918 304.384 122.126 305.337 123.683C306.322 125.24 306.815 127.083 306.815 129.212H299.665C299.665 127.814 299.267 126.75 298.473 126.019C297.71 125.288 296.614 124.922 295.184 124.922C293.754 124.922 292.641 125.288 291.847 126.019C291.084 126.75 290.703 127.814 290.703 129.212V143.99C290.703 145.356 291.084 146.421 291.847 147.183C292.641 147.914 293.754 148.28 295.184 148.28C296.614 148.28 297.71 147.914 298.473 147.183C299.267 146.421 299.665 145.356 299.665 143.99H306.815C306.815 146.087 306.322 147.93 305.337 149.519C304.384 151.076 303.033 152.3 301.285 153.19C299.569 154.048 297.535 154.477 295.184 154.477ZM342.166 154.477C339.846 154.477 337.828 154.048 336.112 153.19C334.396 152.3 333.062 151.076 332.108 149.519C331.187 147.93 330.726 146.087 330.726 143.99V129.212C330.726 127.115 331.187 125.288 332.108 123.731C333.062 122.142 334.396 120.918 336.112 120.06C337.828 119.17 339.846 118.725 342.166 118.725C344.518 118.725 346.536 119.17 348.22 120.06C349.936 120.918 351.255 122.142 352.177 123.731C353.13 125.288 353.607 127.115 353.607 129.212V143.99C353.607 146.087 353.13 147.93 352.177 149.519C351.255 151.076 349.936 152.3 348.22 153.19C346.536 154.048 344.518 154.477 342.166 154.477ZM342.166 148.28C343.596 148.28 344.661 147.914 345.36 147.183C346.091 146.421 346.456 145.356 346.456 143.99V129.212C346.456 127.814 346.107 126.75 345.408 126.019C344.709 125.288 343.628 124.922 342.166 124.922C340.704 124.922 339.624 125.288 338.925 126.019C338.226 126.75 337.876 127.814 337.876 129.212V143.99C337.876 145.356 338.226 146.421 338.925 147.183C339.656 147.914 340.736 148.28 342.166 148.28ZM377.899 154V119.202H386.241L395.25 146.135C395.155 144.959 395.044 143.608 394.917 142.083C394.789 140.526 394.678 138.984 394.583 137.459C394.519 135.902 394.488 134.583 394.488 133.503V119.202H400.78V154H392.438L383.524 127.067C383.619 128.084 383.714 129.292 383.81 130.69C383.905 132.088 383.985 133.503 384.048 134.933C384.143 136.363 384.191 137.634 384.191 138.746V154H377.899ZM425.072 154V119.202H433.414L442.423 146.135C442.328 144.959 442.217 143.608 442.09 142.083C441.963 140.526 441.851 138.984 441.756 137.459C441.692 135.902 441.661 134.583 441.661 133.503V119.202H447.953V154H439.611L430.697 127.067C430.792 128.084 430.888 129.292 430.983 130.69C431.078 132.088 431.158 133.503 431.221 134.933C431.317 136.363 431.364 137.634 431.364 138.746V154H425.072ZM473.199 154V119.202H494.649V125.304H480.206V133.121H492.981V139.223H480.206V147.898H494.649V154H473.199ZM531.049 154.477C528.73 154.477 526.696 154.048 524.948 153.19C523.2 152.3 521.834 151.076 520.848 149.519C519.895 147.93 519.418 146.087 519.418 143.99V129.212C519.418 127.083 519.895 125.24 520.848 123.683C521.834 122.126 523.2 120.918 524.948 120.06C526.696 119.17 528.73 118.725 531.049 118.725C533.401 118.725 535.435 119.17 537.151 120.06C538.899 120.918 540.249 122.126 541.203 123.683C542.188 125.24 542.681 127.083 542.681 129.212H535.53C535.53 127.814 535.133 126.75 534.339 126.019C533.576 125.288 532.479 124.922 531.049 124.922C529.619 124.922 528.507 125.288 527.713 126.019C526.95 126.75 526.569 127.814 526.569 129.212V143.99C526.569 145.356 526.95 146.421 527.713 147.183C528.507 147.914 529.619 148.28 531.049 148.28C532.479 148.28 533.576 147.914 534.339 147.183C535.133 146.421 535.53 145.356 535.53 143.99H542.681C542.681 146.087 542.188 147.93 541.203 149.519C540.249 151.076 538.899 152.3 537.151 153.19C535.435 154.048 533.401 154.477 531.049 154.477ZM574.457 154V125.876H565.638V119.202H590.426V125.876H581.607V154H574.457Z" fill="#34A853"/>
<path d="M142.987 217V210.803H149.899V188.399H142.987V182.202H163.961V188.399H157.049V210.803H163.961V217H142.987ZM189.206 217V182.202H197.548L206.558 209.135C206.462 207.959 206.351 206.608 206.224 205.083C206.097 203.526 205.986 201.984 205.89 200.459C205.827 198.902 205.795 197.583 205.795 196.503V182.202H212.087V217H203.745L194.831 190.067C194.927 191.084 195.022 192.292 195.117 193.69C195.213 195.088 195.292 196.503 195.356 197.933C195.451 199.363 195.499 200.634 195.499 201.746V217H189.206ZM236.38 217V182.202H244.721L253.731 209.135C253.635 207.959 253.524 206.608 253.397 205.083C253.27 203.526 253.159 201.984 253.063 200.459C253 198.902 252.968 197.583 252.968 196.503V182.202H259.26V217H250.918L242.004 190.067C242.1 191.084 242.195 192.292 242.29 193.69C242.386 195.088 242.465 196.503 242.529 197.933C242.624 199.363 242.672 200.634 242.672 201.746V217H236.38ZM294.993 217.477C292.673 217.477 290.655 217.048 288.939 216.19C287.223 215.3 285.888 214.076 284.935 212.519C284.013 210.93 283.553 209.087 283.553 206.99V192.212C283.553 190.115 284.013 188.288 284.935 186.731C285.888 185.142 287.223 183.918 288.939 183.06C290.655 182.17 292.673 181.725 294.993 181.725C297.345 181.725 299.363 182.17 301.047 183.06C302.763 183.918 304.082 185.142 305.003 186.731C305.957 188.288 306.433 190.115 306.433 192.212V206.99C306.433 209.087 305.957 210.93 305.003 212.519C304.082 214.076 302.763 215.3 301.047 216.19C299.363 217.048 297.345 217.477 294.993 217.477ZM294.993 211.28C296.423 211.28 297.488 210.914 298.187 210.183C298.918 209.421 299.283 208.356 299.283 206.99V192.212C299.283 190.814 298.934 189.75 298.235 189.019C297.535 188.288 296.455 187.922 294.993 187.922C293.531 187.922 292.451 188.288 291.752 189.019C291.052 189.75 290.703 190.814 290.703 192.212V206.99C290.703 208.356 291.052 209.421 291.752 210.183C292.483 210.914 293.563 211.28 294.993 211.28ZM337.685 217L329.057 182.202H336.446L341.26 204.177C341.419 204.94 341.61 205.909 341.833 207.085C342.087 208.261 342.277 209.262 342.405 210.088C342.532 209.262 342.691 208.261 342.881 207.085C343.072 205.909 343.247 204.924 343.406 204.13L348.077 182.202H355.275L346.742 217H337.685ZM376.231 217L384.763 182.202H393.82L402.448 217H395.155L393.487 209.135H385.192L383.524 217H376.231ZM386.384 203.414H392.247L390.579 195.025C390.356 193.817 390.118 192.626 389.864 191.45C389.641 190.242 389.466 189.305 389.339 188.637C389.212 189.305 389.037 190.226 388.815 191.402C388.624 192.578 388.402 193.77 388.148 194.977L386.384 203.414ZM432.937 217V188.876H424.119V182.202H448.906V188.876H440.088V217H432.937ZM473.199 217V182.202H494.649V188.304H480.206V196.121H492.981V202.223H480.206V210.898H494.649V217H473.199Z" fill="#EA4335"/>
<path d="M244.245 280V251.876H235.426V245.202H260.214V251.876H251.395V280H244.245ZM294.993 280.477C292.673 280.477 290.655 280.048 288.939 279.19C287.223 278.3 285.888 277.076 284.935 275.519C284.013 273.93 283.553 272.087 283.553 269.99V255.212C283.553 253.115 284.013 251.288 284.935 249.731C285.888 248.142 287.223 246.918 288.939 246.06C290.655 245.17 292.673 244.725 294.993 244.725C297.345 244.725 299.363 245.17 301.047 246.06C302.763 246.918 304.082 248.142 305.003 249.731C305.957 251.288 306.433 253.115 306.433 255.212V269.99C306.433 272.087 305.957 273.93 305.003 275.519C304.082 277.076 302.763 278.3 301.047 279.19C299.363 280.048 297.345 280.477 294.993 280.477ZM294.993 274.28C296.423 274.28 297.488 273.914 298.187 273.183C298.918 272.421 299.283 271.356 299.283 269.99V255.212C299.283 253.814 298.934 252.75 298.235 252.019C297.535 251.288 296.455 250.922 294.993 250.922C293.531 250.922 292.451 251.288 291.752 252.019C291.052 252.75 290.703 253.814 290.703 255.212V269.99C290.703 271.356 291.052 272.421 291.752 273.183C292.483 273.914 293.563 274.28 294.993 274.28ZM342.357 280.477C340.037 280.477 338.003 280.048 336.255 279.19C334.507 278.3 333.141 277.076 332.156 275.519C331.202 273.93 330.726 272.087 330.726 269.99V255.212C330.726 253.083 331.202 251.24 332.156 249.683C333.141 248.126 334.507 246.918 336.255 246.06C338.003 245.17 340.037 244.725 342.357 244.725C344.709 244.725 346.742 245.17 348.458 246.06C350.206 246.918 351.557 248.126 352.51 249.683C353.495 251.24 353.988 253.083 353.988 255.212H346.838C346.838 253.814 346.44 252.75 345.646 252.019C344.883 251.288 343.787 250.922 342.357 250.922C340.927 250.922 339.815 251.288 339.02 252.019C338.257 252.75 337.876 253.814 337.876 255.212V269.99C337.876 271.356 338.257 272.421 339.02 273.183C339.815 273.914 340.927 274.28 342.357 274.28C343.787 274.28 344.883 273.914 345.646 273.183C346.44 272.421 346.838 271.356 346.838 269.99V266.987H341.69V260.933H353.988V269.99C353.988 272.087 353.495 273.93 352.51 275.519C351.557 277.076 350.206 278.3 348.458 279.19C346.742 280.048 344.709 280.477 342.357 280.477ZM378.852 280V245.202H400.303V251.304H385.86V259.121H398.635V265.223H385.86V273.898H400.303V280H378.852ZM432.937 280V251.876H424.119V245.202H448.906V251.876H440.088V280H432.937ZM472.531 280V245.202H479.681V258.549H487.69V245.202H494.84V280H487.69V265.223H479.681V280H472.531ZM520.372 280V245.202H541.822V251.304H527.379V259.121H540.154V265.223H527.379V273.898H541.822V280H520.372ZM566.83 280V245.202H578.032C580.511 245.202 582.656 245.631 584.467 246.489C586.278 247.347 587.677 248.571 588.662 250.16C589.679 251.749 590.187 253.623 590.187 255.784C590.187 258.041 589.631 260.059 588.519 261.838C587.438 263.618 585.961 264.905 584.086 265.699L590.664 280H582.894L577.269 266.844H573.932V280H566.83ZM573.932 260.647H578.032C579.621 260.647 580.844 260.249 581.702 259.455C582.592 258.66 583.037 257.548 583.037 256.118C583.037 254.624 582.592 253.465 581.702 252.638C580.844 251.812 579.621 251.399 578.032 251.399H573.932V260.647Z" fill="#FBBC05"/>
</g>
</g>
<circle cx="25.5" cy="17.5" r="7.5" fill="#FF5656"/>
<circle cx="25.5" cy="17.5" r="7.5" fill="#FF5656"/>
<circle cx="46.5" cy="17.5" r="7.5" fill="#FF5656"/>
<circle cx="46.5" cy="17.5" r="7.5" fill="#FFCA2E"/>
<circle cx="67.5" cy="17.5" r="7.5" fill="#FF5656"/>
<circle cx="67.5" cy="17.5" r="7.5" fill="#24B06C"/>
<path d="M325.057 22V13.2727H330.29V14.2102H326.114V17.1591H329.898V18.0966H326.114V22H325.057ZM331.963 22V15.4545H332.969V22H331.963ZM332.475 14.3636C332.279 14.3636 332.11 14.2969 331.968 14.1634C331.828 14.0298 331.759 13.8693 331.759 13.6818C331.759 13.4943 331.828 13.3338 331.968 13.2003C332.11 13.0668 332.279 13 332.475 13C332.671 13 332.838 13.0668 332.978 13.2003C333.12 13.3338 333.191 13.4943 333.191 13.6818C333.191 13.8693 333.12 14.0298 332.978 14.1634C332.838 14.2969 332.671 14.3636 332.475 14.3636ZM337.453 24.5909C336.967 24.5909 336.55 24.5284 336.2 24.4034C335.851 24.2812 335.56 24.1193 335.327 23.9176C335.097 23.7188 334.913 23.5057 334.777 23.2784L335.578 22.7159C335.669 22.8352 335.784 22.9716 335.923 23.125C336.063 23.2812 336.253 23.4162 336.494 23.5298C336.739 23.6463 337.058 23.7045 337.453 23.7045C337.982 23.7045 338.418 23.5767 338.761 23.321C339.105 23.0653 339.277 22.6648 339.277 22.1193V20.7898H339.192C339.118 20.9091 339.013 21.0568 338.876 21.233C338.743 21.4062 338.55 21.5611 338.297 21.6974C338.047 21.831 337.709 21.8977 337.283 21.8977C336.754 21.8977 336.28 21.7727 335.859 21.5227C335.442 21.2727 335.111 20.9091 334.866 20.4318C334.625 19.9545 334.504 19.375 334.504 18.6932C334.504 18.0227 334.622 17.4389 334.858 16.9418C335.094 16.4418 335.422 16.0554 335.842 15.7827C336.263 15.5071 336.749 15.3693 337.3 15.3693C337.726 15.3693 338.064 15.4403 338.314 15.5824C338.567 15.7216 338.76 15.8807 338.893 16.0597C339.03 16.2358 339.135 16.3807 339.209 16.4943H339.311V15.4545H340.283V22.1875C340.283 22.75 340.155 23.2074 339.899 23.5597C339.646 23.9148 339.305 24.1747 338.876 24.3395C338.45 24.5071 337.976 24.5909 337.453 24.5909ZM337.419 20.9943C337.822 20.9943 338.163 20.902 338.442 20.7173C338.72 20.5327 338.932 20.267 339.077 19.9205C339.222 19.5739 339.294 19.1591 339.294 18.6761C339.294 18.2045 339.223 17.7884 339.081 17.4276C338.939 17.0668 338.729 16.7841 338.45 16.5795C338.172 16.375 337.828 16.2727 337.419 16.2727C336.993 16.2727 336.638 16.3807 336.354 16.5966C336.072 16.8125 335.861 17.1023 335.719 17.4659C335.58 17.8295 335.51 18.233 335.51 18.6761C335.51 19.1307 335.581 19.5327 335.723 19.8821C335.868 20.2287 336.081 20.5014 336.362 20.7003C336.646 20.8963 336.999 20.9943 337.419 20.9943ZM342.124 22V15.4545H343.095V16.4773H343.18C343.317 16.1278 343.537 15.8565 343.841 15.6634C344.145 15.4673 344.51 15.3693 344.936 15.3693C345.368 15.3693 345.727 15.4673 346.014 15.6634C346.304 15.8565 346.53 16.1278 346.692 16.4773H346.76C346.928 16.1392 347.179 15.8707 347.514 15.6719C347.849 15.4702 348.251 15.3693 348.72 15.3693C349.305 15.3693 349.784 15.5526 350.156 15.919C350.528 16.2827 350.714 16.8494 350.714 17.6193V22H349.709V17.6193C349.709 17.1364 349.577 16.7912 349.312 16.5838C349.048 16.3764 348.737 16.2727 348.379 16.2727C347.919 16.2727 347.563 16.4119 347.31 16.6903C347.057 16.9659 346.93 17.3153 346.93 17.7386V22H345.908V17.517C345.908 17.1449 345.787 16.8452 345.545 16.6179C345.304 16.3878 344.993 16.2727 344.612 16.2727C344.351 16.2727 344.107 16.3423 343.879 16.4815C343.655 16.6207 343.473 16.8139 343.334 17.0611C343.197 17.3054 343.129 17.5881 343.129 17.9091V22H342.124ZM354.479 22.1534C354.065 22.1534 353.688 22.0753 353.35 21.919C353.012 21.7599 352.744 21.5312 352.545 21.233C352.346 20.9318 352.246 20.5682 352.246 20.142C352.246 19.767 352.32 19.4631 352.468 19.2301C352.616 18.9943 352.813 18.8097 353.06 18.6761C353.308 18.5426 353.58 18.4432 353.879 18.3778C354.18 18.3097 354.482 18.2557 354.786 18.2159C355.184 18.1648 355.506 18.1264 355.754 18.1009C356.004 18.0724 356.185 18.0256 356.299 17.9602C356.415 17.8949 356.474 17.7812 356.474 17.6193V17.5852C356.474 17.1648 356.359 16.8381 356.129 16.6051C355.901 16.3722 355.556 16.2557 355.093 16.2557C354.613 16.2557 354.237 16.3608 353.964 16.571C353.691 16.7812 353.499 17.0057 353.388 17.2443L352.434 16.9034C352.604 16.5057 352.832 16.196 353.116 15.9744C353.403 15.75 353.715 15.5937 354.053 15.5057C354.394 15.4148 354.729 15.3693 355.059 15.3693C355.269 15.3693 355.511 15.3949 355.783 15.446C356.059 15.4943 356.325 15.5952 356.58 15.7486C356.839 15.902 357.053 16.1335 357.224 16.4432C357.394 16.7528 357.479 17.1676 357.479 17.6875V22H356.474V21.1136H356.423C356.354 21.2557 356.241 21.4077 356.082 21.5696C355.923 21.7315 355.711 21.8693 355.447 21.983C355.183 22.0966 354.86 22.1534 354.479 22.1534ZM354.633 21.25C355.031 21.25 355.366 21.1719 355.638 21.0156C355.914 20.8594 356.121 20.6577 356.261 20.4105C356.403 20.1634 356.474 19.9034 356.474 19.6307V18.7102C356.431 18.7614 356.337 18.8082 356.192 18.8509C356.05 18.8906 355.886 18.9261 355.698 18.9574C355.513 18.9858 355.333 19.0114 355.157 19.0341C354.984 19.054 354.843 19.071 354.735 19.0852C354.474 19.1193 354.229 19.1747 354.002 19.2514C353.778 19.3253 353.596 19.4375 353.457 19.5881C353.32 19.7358 353.252 19.9375 353.252 20.1932C353.252 20.5426 353.381 20.8068 353.64 20.9858C353.901 21.1619 354.232 21.25 354.633 21.25ZM366.44 17.1676V18.1051H362.622V17.1676H366.44ZM377.687 16C377.593 15.7131 377.469 15.456 377.316 15.2287C377.165 14.9986 376.985 14.8026 376.775 14.6406C376.567 14.4787 376.332 14.3551 376.067 14.2699C375.803 14.1847 375.513 14.142 375.198 14.142C374.681 14.142 374.211 14.2756 373.788 14.5426C373.364 14.8097 373.028 15.2031 372.778 15.723C372.528 16.2429 372.403 16.8807 372.403 17.6364C372.403 18.392 372.529 19.0298 372.782 19.5497C373.035 20.0696 373.377 20.4631 373.809 20.7301C374.241 20.9972 374.727 21.1307 375.266 21.1307C375.766 21.1307 376.207 21.0241 376.587 20.8111C376.971 20.5952 377.269 20.2912 377.482 19.8991C377.698 19.5043 377.806 19.0398 377.806 18.5057L378.13 18.5739H375.505V17.6364H378.829V18.5739C378.829 19.2926 378.675 19.9176 378.369 20.4489C378.065 20.9801 377.644 21.392 377.107 21.6847C376.573 21.9744 375.96 22.1193 375.266 22.1193C374.494 22.1193 373.815 21.9375 373.229 21.5739C372.647 21.2102 372.192 20.6932 371.866 20.0227C371.542 19.3523 371.38 18.5568 371.38 17.6364C371.38 16.946 371.472 16.3253 371.657 15.7741C371.844 15.2202 372.109 14.7486 372.45 14.3594C372.79 13.9702 373.194 13.6719 373.66 13.4645C374.126 13.2571 374.638 13.1534 375.198 13.1534C375.658 13.1534 376.087 13.223 376.485 13.3622C376.886 13.4986 377.242 13.6932 377.555 13.946C377.87 14.196 378.133 14.4957 378.343 14.8452C378.553 15.1918 378.698 15.5767 378.778 16H377.687ZM383.332 22H380.639V13.2727H383.451C384.298 13.2727 385.022 13.4474 385.625 13.7969C386.227 14.1435 386.689 14.642 387.01 15.2926C387.331 15.9403 387.491 16.7159 387.491 17.6193C387.491 18.5284 387.329 19.3111 387.005 19.9673C386.681 20.6207 386.21 21.1236 385.591 21.4759C384.971 21.8253 384.218 22 383.332 22ZM381.696 21.0625H383.264C383.985 21.0625 384.583 20.9233 385.058 20.6449C385.532 20.3665 385.886 19.9702 386.119 19.456C386.352 18.9418 386.468 18.3295 386.468 17.6193C386.468 16.9148 386.353 16.3082 386.123 15.7997C385.893 15.2884 385.549 14.8963 385.092 14.6236C384.635 14.348 384.065 14.2102 383.383 14.2102H381.696V21.0625ZM394.037 15.4545C393.985 15.0227 393.778 14.6875 393.414 14.4489C393.051 14.2102 392.605 14.0909 392.076 14.0909C391.69 14.0909 391.352 14.1534 391.062 14.2784C390.775 14.4034 390.551 14.5753 390.389 14.794C390.23 15.0128 390.15 15.2614 390.15 15.5398C390.15 15.7727 390.206 15.973 390.316 16.1406C390.43 16.3054 390.575 16.4432 390.751 16.554C390.927 16.6619 391.112 16.7514 391.305 16.8224C391.498 16.8906 391.676 16.946 391.838 16.9886L392.724 17.2273C392.951 17.2869 393.204 17.3693 393.483 17.4744C393.764 17.5795 394.032 17.723 394.288 17.9048C394.547 18.0838 394.76 18.3139 394.927 18.5952C395.095 18.8764 395.179 19.2216 395.179 19.6307C395.179 20.1023 395.055 20.5284 394.808 20.9091C394.564 21.2898 394.206 21.5923 393.734 21.8168C393.265 22.0412 392.696 22.1534 392.025 22.1534C391.4 22.1534 390.859 22.0526 390.402 21.8509C389.947 21.6491 389.589 21.3679 389.328 21.0071C389.069 20.6463 388.923 20.2273 388.889 19.75H389.98C390.008 20.0795 390.119 20.3523 390.312 20.5682C390.508 20.7812 390.755 20.9403 391.054 21.0455C391.355 21.1477 391.679 21.1989 392.025 21.1989C392.429 21.1989 392.791 21.1335 393.112 21.0028C393.433 20.8693 393.687 20.6847 393.875 20.4489C394.062 20.2102 394.156 19.9318 394.156 19.6136C394.156 19.3239 394.075 19.0881 393.913 18.9062C393.751 18.7244 393.538 18.5767 393.274 18.4631C393.01 18.3494 392.724 18.25 392.417 18.1648L391.343 17.858C390.662 17.6619 390.122 17.3821 389.724 17.0185C389.326 16.6548 389.127 16.179 389.127 15.5909C389.127 15.1023 389.26 14.6761 389.524 14.3125C389.791 13.946 390.149 13.6619 390.598 13.4602C391.049 13.2557 391.554 13.1534 392.11 13.1534C392.673 13.1534 393.173 13.2543 393.61 13.456C394.048 13.6548 394.395 13.9276 394.65 14.2741C394.909 14.6207 395.045 15.0142 395.059 15.4545H394.037ZM403.939 16H402.882C402.82 15.696 402.71 15.429 402.554 15.1989C402.401 14.9688 402.213 14.7756 401.991 14.6193C401.773 14.4602 401.53 14.3409 401.263 14.2614C400.996 14.1818 400.717 14.142 400.428 14.142C399.899 14.142 399.42 14.2756 398.991 14.5426C398.565 14.8097 398.226 15.2031 397.973 15.723C397.723 16.2429 397.598 16.8807 397.598 17.6364C397.598 18.392 397.723 19.0298 397.973 19.5497C398.226 20.0696 398.565 20.4631 398.991 20.7301C399.42 20.9972 399.899 21.1307 400.428 21.1307C400.717 21.1307 400.996 21.0909 401.263 21.0114C401.53 20.9318 401.773 20.8139 401.991 20.6577C402.213 20.4986 402.401 20.304 402.554 20.0739C402.71 19.8409 402.82 19.5739 402.882 19.2727H403.939C403.859 19.7187 403.714 20.1179 403.504 20.4702C403.294 20.8224 403.033 21.1222 402.72 21.3693C402.408 21.6136 402.057 21.7997 401.668 21.9276C401.281 22.0554 400.868 22.1193 400.428 22.1193C399.683 22.1193 399.021 21.9375 398.442 21.5739C397.862 21.2102 397.406 20.6932 397.074 20.0227C396.741 19.3523 396.575 18.5568 396.575 17.6364C396.575 16.7159 396.741 15.9205 397.074 15.25C397.406 14.5795 397.862 14.0625 398.442 13.6989C399.021 13.3352 399.683 13.1534 400.428 13.1534C400.868 13.1534 401.281 13.2173 401.668 13.3452C402.057 13.473 402.408 13.6605 402.72 13.9077C403.033 14.152 403.294 14.4503 403.504 14.8026C403.714 15.152 403.859 15.5511 403.939 16ZM409.022 13.2727H410.283L413.249 20.517H413.351L416.317 13.2727H417.578V22H416.59V15.3693H416.505L413.777 22H412.823L410.096 15.3693H410.01V22H409.022V13.2727ZM420.055 13.2727L422.646 20.6193H422.749L425.339 13.2727H426.447L423.243 22H422.152L418.947 13.2727H420.055ZM429.988 13.2727H431.044V19.5114C431.044 20.0682 430.942 20.5412 430.738 20.9304C430.533 21.3196 430.245 21.6151 429.873 21.8168C429.5 22.0185 429.061 22.1193 428.556 22.1193C428.078 22.1193 427.654 22.0327 427.282 21.8594C426.909 21.6832 426.617 21.4332 426.404 21.1094C426.191 20.7855 426.084 20.4006 426.084 19.9545H427.124C427.124 20.2017 427.185 20.4176 427.307 20.6023C427.432 20.7841 427.603 20.9261 427.819 21.0284C428.034 21.1307 428.28 21.1818 428.556 21.1818C428.86 21.1818 429.118 21.1179 429.331 20.9901C429.544 20.8622 429.706 20.6747 429.817 20.4276C429.931 20.1776 429.988 19.8722 429.988 19.5114V13.2727ZM440.185 16H439.128C439.066 15.696 438.956 15.429 438.8 15.1989C438.647 14.9688 438.459 14.7756 438.238 14.6193C438.019 14.4602 437.776 14.3409 437.509 14.2614C437.242 14.1818 436.963 14.142 436.674 14.142C436.145 14.142 435.667 14.2756 435.238 14.5426C434.811 14.8097 434.472 15.2031 434.219 15.723C433.969 16.2429 433.844 16.8807 433.844 17.6364C433.844 18.392 433.969 19.0298 434.219 19.5497C434.472 20.0696 434.811 20.4631 435.238 20.7301C435.667 20.9972 436.145 21.1307 436.674 21.1307C436.963 21.1307 437.242 21.0909 437.509 21.0114C437.776 20.9318 438.019 20.8139 438.238 20.6577C438.459 20.4986 438.647 20.304 438.8 20.0739C438.956 19.8409 439.066 19.5739 439.128 19.2727H440.185C440.105 19.7187 439.961 20.1179 439.75 20.4702C439.54 20.8224 439.279 21.1222 438.966 21.3693C438.654 21.6136 438.303 21.7997 437.914 21.9276C437.527 22.0554 437.114 22.1193 436.674 22.1193C435.929 22.1193 435.267 21.9375 434.688 21.5739C434.108 21.2102 433.652 20.6932 433.32 20.0227C432.988 19.3523 432.821 18.5568 432.821 17.6364C432.821 16.7159 432.988 15.9205 433.32 15.25C433.652 14.5795 434.108 14.0625 434.688 13.6989C435.267 13.3352 435.929 13.1534 436.674 13.1534C437.114 13.1534 437.527 13.2173 437.914 13.3452C438.303 13.473 438.654 13.6605 438.966 13.9077C439.279 14.152 439.54 14.4503 439.75 14.8026C439.961 15.152 440.105 15.5511 440.185 16ZM441.893 22V13.2727H447.16V14.2102H442.95V17.1591H446.887V18.0966H442.95V21.0625H447.228V22H441.893Z" fill="white"/>
</svg>
