<svg width="100%" height="100%" viewBox="0 0 342 618" fill="none" xmlns="http://www.w3.org/2000/svg">
<path fill-rule="evenodd" clip-rule="evenodd" d="M23 0C10.2975 0 0 10.2975 0 23V595C0 607.703 10.2974 618 23 618H319C331.703 618 342 607.703 342 595V23C342 10.2975 331.703 0 319 0H23ZM32 17C19.2975 17 9 27.2975 9 40V578C9 590.703 19.2974 601 32 601H310C322.703 601 333 590.703 333 578V40C333 27.2975 322.703 17 310 17H32Z" fill="#282828"/>
<circle cx="170.5" cy="37.5" r="7.5" fill="#272727"/>
</svg>
