<svg width="55" height="55" viewBox="0 0 80 81" fill="none" xmlns="http://www.w3.org/2000/svg">
<g id="Iconsax/Linear/book1">
<path id="Vector" d="M39.9958 19.0237V68.6963M25.9219 28.9582H18.471M28.4055 38.8928H18.471M73.1108 56.2781V16.3083C73.1108 12.3345 69.8655 9.38726 65.9248 9.71841H65.7262C58.772 10.3145 48.2083 13.8578 42.3138 17.5667L41.7509 17.9309C40.7905 18.527 39.201 18.527 38.2407 17.9309L37.4128 17.4342C31.5183 13.7584 20.9877 10.2483 14.0336 9.68529C10.0929 9.35414 6.88074 12.3345 6.88074 16.2752V56.2781C6.88074 59.4572 9.46371 62.4375 12.6428 62.8349L13.6031 62.9674C20.7891 63.9277 31.8826 67.5704 38.2407 71.0475L38.3731 71.1137C39.2672 71.6104 40.6912 71.6104 41.5522 71.1137C47.9103 67.6035 59.0369 63.9277 66.256 62.9674L67.3488 62.8349C70.5278 62.4375 73.1108 59.4572 73.1108 56.2781Z" stroke="white" stroke-width="4.96725" stroke-linecap="round" stroke-linejoin="round"/>
</g>
</svg>
