<svg width="55" height="55" viewBox="0 0 81 81" fill="none" xmlns="http://www.w3.org/2000/svg">
<g id="Iconsax/Bold/i3dcubescan">
<path id="Vector" d="M73.6362 33.0861C72.2784 33.0861 71.1525 31.9602 71.1525 30.6025V23.9795C71.1525 15.4358 65.6223 9.90561 57.0786 9.90561H23.9636C15.4199 9.90561 9.88972 15.4358 9.88972 23.9795V30.6025C9.88972 31.9602 8.76381 33.0861 7.4061 33.0861C6.04838 33.0861 4.92247 31.9602 4.92247 30.6025V23.9795C4.92247 12.5879 12.572 4.93835 23.9636 4.93835H57.0786C68.4702 4.93835 76.1198 12.5879 76.1198 23.9795V30.6025C76.1198 31.9602 74.9939 33.0861 73.6362 33.0861ZM57.0786 76.1357H23.9636C12.572 76.1357 4.92247 68.4861 4.92247 57.0945V50.4715C4.92247 49.1138 6.04838 47.9879 7.4061 47.9879C8.76381 47.9879 9.88972 49.1138 9.88972 50.4715V57.0945C9.88972 65.6382 15.4199 71.1684 23.9636 71.1684H57.0786C65.6223 71.1684 71.1525 65.6382 71.1525 57.0945V50.4715C71.1525 49.1138 72.2784 47.9879 73.6362 47.9879C74.9939 47.9879 76.1198 49.1138 76.1198 50.4715V57.0945C76.1198 68.4861 68.4702 76.1357 57.0786 76.1357Z" fill="white"/>
<path id="Vector_2" d="M55.0918 27.9862L42.6405 21.2639C41.3159 20.5685 39.7595 20.5685 38.4349 21.2639L25.9505 27.9862C25.0564 28.4829 24.4935 29.4433 24.4935 30.503C24.4935 31.5958 25.0564 32.5561 25.9505 33.0528L38.4018 39.7752C39.0641 40.1394 39.7926 40.305 40.5211 40.305C41.2497 40.305 41.9782 40.1394 42.6405 39.7752L55.0918 33.0528C55.541 32.7975 55.9132 32.4261 56.1696 31.9775C56.4259 31.5289 56.5569 31.0196 56.5488 30.503C56.5488 29.4433 55.9859 28.4829 55.0918 27.9862ZM36.3487 42.0899L24.7584 36.2948C24.3216 36.079 23.8371 35.978 23.3504 36.0012C22.8638 36.0244 22.3911 36.171 21.9767 36.4272C21.5694 36.6851 21.2341 37.0422 21.0025 37.465C20.7708 37.8878 20.6502 38.3625 20.6521 38.8446V49.8057C20.6521 51.6933 21.7118 53.4153 23.4007 54.2431L34.9909 60.0383C35.3883 60.2369 35.8188 60.3363 36.2824 60.3363C36.8123 60.3363 37.309 60.2038 37.7726 59.9058C38.6336 59.376 39.1303 58.4819 39.1303 57.4884V46.5273C39.0972 44.6398 38.0706 42.9509 36.3487 42.0899ZM59.0391 36.4239C58.6247 36.1677 58.152 36.021 57.6654 35.9979C57.1787 35.9747 56.6942 36.0757 56.2574 36.2915L44.6672 42.0866C43.8424 42.4984 43.1485 43.1315 42.663 43.9152C42.1776 44.6989 41.9199 45.6022 41.9186 46.524V57.4851C41.9186 58.4785 42.4153 59.3727 43.2763 59.9025C43.7399 60.2005 44.2367 60.333 44.7665 60.333C45.197 60.333 45.6275 60.2336 46.058 60.035L57.6482 54.2398C59.3371 53.3788 60.3968 51.69 60.3968 49.8024V38.8413C60.3968 37.8479 59.9001 36.9538 59.0391 36.4239Z" fill="white"/>
</g>
</svg>
