<svg width="55" height="55" viewBox="0 0 88 89" fill="none" xmlns="http://www.w3.org/2000/svg">
<g id="Iconsax/Bold/messageprogramming">
<path id="Vector" d="M58.5313 8.12524H29.492C14.9723 8.12524 7.71246 15.3851 7.71246 29.9047V48.0543C7.71246 66.2039 14.9723 69.8338 29.492 69.8338H31.3069C32.3233 69.8338 33.6301 70.4872 34.2109 71.2858L39.6557 78.5456C42.0515 81.74 45.9718 81.74 48.3675 78.5456L53.8124 71.2858C54.5021 70.3783 55.5911 69.8338 56.7163 69.8338H58.5313C73.051 69.8338 80.3108 62.574 80.3108 48.0543V29.9047C80.3108 15.3851 73.051 8.12524 58.5313 8.12524ZM31.4158 45.1504C32.4685 46.2031 32.4685 47.9454 31.4158 48.9981C30.8713 49.5426 30.1816 49.7967 29.492 49.7967C28.8023 49.7967 28.1126 49.5426 27.5681 48.9981L20.3083 41.7383C19.802 41.226 19.518 40.5347 19.518 39.8144C19.518 39.0941 19.802 38.4029 20.3083 37.8906L27.5681 30.6307C28.6208 29.5781 30.3631 29.5781 31.4158 30.6307C32.4685 31.6834 32.4685 33.4258 31.4158 34.4784L26.0798 39.8144L31.4158 45.1504ZM50.1462 32.4094L42.8864 49.3611C42.4508 50.3775 41.4344 50.9946 40.3817 50.9946C39.9272 51.0009 39.4784 50.8925 39.0768 50.6794C38.6753 50.4664 38.3339 50.1556 38.0842 49.7757C37.8346 49.3958 37.6847 48.9591 37.6485 48.506C37.6123 48.0528 37.6909 47.5979 37.8771 47.1832L45.1369 30.2314C45.7177 28.8521 47.3149 28.1987 48.7305 28.8158C50.1099 29.4329 50.727 31.03 50.1462 32.4094ZM67.715 41.7383L60.4552 48.9981C59.9107 49.5426 59.221 49.7967 58.5313 49.7967C57.8416 49.7967 57.1519 49.5426 56.6074 48.9981C56.1011 48.4858 55.8172 47.7945 55.8172 47.0743C55.8172 46.354 56.1011 45.6627 56.6074 45.1504L61.9434 39.8144L56.6074 34.4784C56.1011 33.9661 55.8172 33.2749 55.8172 32.5546C55.8172 31.8343 56.1011 31.143 56.6074 30.6307C57.6601 29.5781 59.4025 29.5781 60.4552 30.6307L67.715 37.8906C68.7677 38.9432 68.7677 40.6856 67.715 41.7383Z" fill="white"/>
</g>
</svg>
