<svg width="55" height="55" viewBox="0 0 100 100" fill="none" xmlns="http://www.w3.org/2000/svg">
<g id="Iconsax/Bold/profilecircle">
<path id="Vector" d="M91.4055 49.9958C91.4055 27.1879 72.8196 8.60205 50.0117 8.60205C27.2037 8.60205 8.61787 27.1879 8.61787 49.9958C8.61787 62 13.7921 72.8038 21.9881 80.3789C21.9881 80.4203 21.9881 80.4203 21.9467 80.4617C22.3606 80.8756 22.8573 81.2068 23.2713 81.5793C23.5196 81.7863 23.7266 81.9932 23.975 82.1588C24.7201 82.7797 25.5479 83.3592 26.3344 83.9388L27.1623 84.5183C27.9488 85.0564 28.7766 85.5531 29.6459 86.0084C29.9357 86.174 30.2668 86.381 30.5566 86.5466C31.3845 87.0019 32.2537 87.4158 33.1644 87.7884C33.4955 87.9539 33.8267 88.1195 34.1578 88.2437C35.0685 88.6162 35.9792 88.9474 36.8898 89.2372C37.221 89.3613 37.5521 89.4855 37.8833 89.5683C38.8767 89.8581 39.8702 90.1064 40.8636 90.3548C41.1534 90.4376 41.4431 90.5204 41.7743 90.5618C42.9333 90.8101 44.0924 90.9757 45.2928 91.0999C45.4583 91.0999 45.6239 91.1413 45.7895 91.1827C47.1969 91.3068 48.6043 91.3896 50.0117 91.3896C51.4191 91.3896 52.8264 91.3068 54.1924 91.1827C54.358 91.1827 54.5236 91.1413 54.6892 91.0999C55.8896 90.9757 57.0486 90.8101 58.2076 90.5618C58.4974 90.5204 58.7871 90.3962 59.1183 90.3548C60.1117 90.1064 61.1466 89.8995 62.0987 89.5683C62.4298 89.4441 62.761 89.3199 63.0921 89.2372C64.0028 88.906 64.9548 88.6162 65.8241 88.2437C66.1552 88.1195 66.4864 87.9539 66.8175 87.7884C67.6868 87.4158 68.5561 87.0019 69.4254 86.5466C69.7565 86.381 70.0463 86.174 70.336 86.0084C71.1639 85.5117 71.9918 85.0564 72.8196 84.5183C73.1094 84.3527 73.3578 84.1457 73.6475 83.9388C74.4754 83.3592 75.2619 82.7797 76.007 82.1588C76.2553 81.9519 76.4623 81.7449 76.7107 81.5793C77.166 81.2068 77.6213 80.8342 78.0353 80.4617C78.0353 80.4203 78.0353 80.4203 77.9939 80.3789C86.2312 72.8038 91.4055 62 91.4055 49.9958ZM70.4602 70.5686C59.2425 63.0349 40.8636 63.0349 29.5631 70.5686C27.7418 71.769 26.2516 73.1764 25.0098 74.7079C18.4895 68.1357 14.8296 59.2537 14.8269 49.9958C14.8269 30.5822 30.598 14.8111 50.0117 14.8111C69.4254 14.8111 85.1964 30.5822 85.1964 49.9958C85.1964 59.5992 81.3054 68.3333 75.0135 74.7079C73.8131 73.1764 72.2815 71.769 70.4602 70.5686Z" fill="white"/>
<path id="Vector_2" d="M50.0117 29.0095C41.4431 29.0095 34.489 35.9637 34.489 44.5322C34.489 52.9351 41.0706 59.7651 49.8047 60.0135H50.5498C54.5679 59.8814 58.3774 58.1925 61.1735 55.3038C63.9696 52.415 65.5333 48.5525 65.5343 44.5322C65.5343 35.9637 58.5802 29.0095 50.0117 29.0095Z" fill="white"/>
</g>
</svg>
