<?xml version="1.0" encoding="utf-8"?>
<!-- Uploaded to: SVG Repo, www.svgrepo.com, Generator: SVG Repo Mixer Tools -->
<svg width="800px" height="800px" viewBox="0 0 1024 1024" class="icon"  version="1.1" xmlns="http://www.w3.org/2000/svg"><path d="M811.885714 899.657143H234.057143c-73.142857 0-124.342857-58.514286-124.342857-124.342857V541.257143h775.314285c21.942857 0 36.571429 14.628571 36.571429 36.571428v204.8c0 65.828571-51.2 117.028571-109.714286 117.028572z" fill="#F4B1B2" /><path d="M760.685714 936.228571H263.314286c-102.4 0-182.857143-80.457143-182.857143-182.857142V292.571429c0-102.4 80.457143-182.857143 182.857143-182.857143h504.685714C870.4 109.714286 950.857143 190.171429 950.857143 292.571429v460.8c-7.314286 95.085714-87.771429 182.857143-190.171429 182.857142zM263.314286 160.914286c-73.142857 0-131.657143 58.514286-131.657143 131.657143v460.8c0 73.142857 58.514286 131.657143 131.657143 131.657142h504.685714c73.142857 0 131.657143-58.514286 131.657143-131.657142V292.571429c0-73.142857-58.514286-131.657143-131.657143-131.657143H263.314286z" fill="#D72822" /><path d="M731.428571 256V190.171429c0-73.142857-43.885714-131.657143-102.4-131.657143H387.657143c-58.514286 0-102.4 58.514286-102.4 131.657143V256H731.428571z" fill="#F4B1B2" /><path d="M731.428571 285.257143H263.314286v-21.942857-73.142857c0-87.771429 58.514286-160.914286 131.657143-160.914286h241.371428c73.142857 0 131.657143 73.142857 131.657143 160.914286v87.771428l-36.571429 7.314286z m-416.914285-58.514286h402.285714v-36.571428c0-58.514286-36.571429-102.4-80.457143-102.4H387.657143c-43.885714 0-80.457143 43.885714-80.457143 102.4v36.571428z" fill="#D72822" /><path d="M833.828571 285.257143H190.171429c-14.628571 0-29.257143-14.628571-29.257143-29.257143s14.628571-29.257143 29.257143-29.257143h643.657142c14.628571 0 29.257143 14.628571 29.257143 29.257143s-14.628571 29.257143-29.257143 29.257143z" fill="#D72822" /><path d="M378.88 546.157714l158.208 118.125715-30.573714 40.96L348.16 587.190857z" fill="#CB2A24" /><path d="M468.260571 674.304l261.851429-275.894857 37.083429 35.254857-261.851429 275.894857z" fill="#CB2A24" /></svg>